%TF.GenerationSoftware,KiCad,Pcbnew,5.1.10-88a1d61d58~88~ubuntu20.04.1*%
%TF.CreationDate,2021-05-25T15:32:40+07:00*%
%TF.ProjectId,36P-miniSAS-Header-Adapter,3336502d-6d69-46e6-9953-41532d486561,rev?*%
%TF.SameCoordinates,Original*%
%TF.FileFunction,Copper,L2,Bot*%
%TF.FilePolarity,Positive*%
%FSLAX46Y46*%
G04 Gerber Fmt 4.6, Leading zero omitted, Abs format (unit mm)*
G04 Created by KiCad (PCBNEW 5.1.10-88a1d61d58~88~ubuntu20.04.1) date 2021-05-25 15:32:40*
%MOMM*%
%LPD*%
G01*
G04 APERTURE LIST*
%TA.AperFunction,SMDPad,CuDef*%
%ADD10R,1.100000X0.300000*%
%TD*%
%TA.AperFunction,SMDPad,CuDef*%
%ADD11R,3.100000X2.300000*%
%TD*%
%TA.AperFunction,ComponentPad*%
%ADD12O,1.700000X1.700000*%
%TD*%
%TA.AperFunction,ComponentPad*%
%ADD13R,1.700000X1.700000*%
%TD*%
%TA.AperFunction,ComponentPad*%
%ADD14C,1.308000*%
%TD*%
%TA.AperFunction,ViaPad*%
%ADD15C,0.800000*%
%TD*%
%TA.AperFunction,Conductor*%
%ADD16C,0.250000*%
%TD*%
%TA.AperFunction,Conductor*%
%ADD17C,0.254000*%
%TD*%
%TA.AperFunction,Conductor*%
%ADD18C,0.100000*%
%TD*%
G04 APERTURE END LIST*
D10*
%TO.P,J5,36*%
%TO.N,/36*%
X197500000Y-11270000D03*
%TO.P,J5,35*%
%TO.N,/35*%
X197500000Y-10770000D03*
%TO.P,J5,34*%
%TO.N,/34*%
X197500000Y-10270000D03*
%TO.P,J5,33*%
%TO.N,/33*%
X197500000Y-9770000D03*
%TO.P,J5,32*%
%TO.N,/32*%
X197500000Y-9270000D03*
%TO.P,J5,31*%
%TO.N,/31*%
X197500000Y-8770000D03*
%TO.P,J5,30*%
%TO.N,/30*%
X197500000Y-8270000D03*
%TO.P,J5,29*%
%TO.N,/29*%
X197500000Y-7770000D03*
%TO.P,J5,28*%
%TO.N,/28*%
X197500000Y-7270000D03*
%TO.P,J5,27*%
%TO.N,/27*%
X197500000Y-6770000D03*
%TO.P,J5,26*%
%TO.N,/26*%
X197500000Y-6270000D03*
%TO.P,J5,25*%
%TO.N,/25*%
X197500000Y-5770000D03*
%TO.P,J5,24*%
%TO.N,/24*%
X197500000Y-5270000D03*
%TO.P,J5,23*%
%TO.N,/23*%
X197500000Y-4770000D03*
%TO.P,J5,22*%
%TO.N,/22*%
X197500000Y-4270000D03*
%TO.P,J5,21*%
%TO.N,/21*%
X197500000Y-3770000D03*
%TO.P,J5,20*%
%TO.N,/20*%
X197500000Y-3270000D03*
%TO.P,J5,19*%
%TO.N,/19*%
X197500000Y-2770000D03*
%TO.P,J5,18*%
%TO.N,/18*%
X197500000Y-2270000D03*
%TO.P,J5,17*%
%TO.N,/17*%
X197500000Y-1770000D03*
%TO.P,J5,16*%
%TO.N,/16*%
X197500000Y-1270000D03*
%TO.P,J5,15*%
%TO.N,/15*%
X197500000Y-770000D03*
%TO.P,J5,14*%
%TO.N,/14*%
X197500000Y-270000D03*
%TO.P,J5,13*%
%TO.N,/13*%
X197500000Y230000D03*
%TO.P,J5,12*%
%TO.N,/12*%
X197500000Y730000D03*
%TO.P,J5,11*%
%TO.N,/11*%
X197500000Y1230000D03*
%TO.P,J5,10*%
%TO.N,/10*%
X197500000Y1730000D03*
%TO.P,J5,9*%
%TO.N,/9*%
X197500000Y2230000D03*
%TO.P,J5,8*%
%TO.N,/8*%
X197500000Y2730000D03*
%TO.P,J5,7*%
%TO.N,/7*%
X197500000Y3230000D03*
D11*
%TO.P,J5,S1*%
%TO.N,GND*%
X199200000Y7900000D03*
%TO.P,J5,S2*%
X199200000Y-12940000D03*
D10*
%TO.P,J5,6*%
%TO.N,/6*%
X197500000Y3730000D03*
%TO.P,J5,5*%
%TO.N,/5*%
X197500000Y4230000D03*
%TO.P,J5,4*%
%TO.N,/4*%
X197500000Y4730000D03*
%TO.P,J5,3*%
%TO.N,/3*%
X197500000Y5230000D03*
%TO.P,J5,2*%
%TO.N,/2*%
X197500000Y5730000D03*
%TO.P,J5,1*%
%TO.N,/1*%
X197500000Y6230000D03*
%TD*%
D12*
%TO.P,J4,36*%
%TO.N,/36*%
X179210000Y-24180000D03*
%TO.P,J4,35*%
%TO.N,/35*%
X181750000Y-24180000D03*
%TO.P,J4,34*%
%TO.N,/34*%
X179210000Y-21640000D03*
%TO.P,J4,33*%
%TO.N,/33*%
X181750000Y-21640000D03*
%TO.P,J4,32*%
%TO.N,/32*%
X179210000Y-19100000D03*
%TO.P,J4,31*%
%TO.N,/31*%
X181750000Y-19100000D03*
%TO.P,J4,30*%
%TO.N,/30*%
X179210000Y-16560000D03*
%TO.P,J4,29*%
%TO.N,/29*%
X181750000Y-16560000D03*
%TO.P,J4,28*%
%TO.N,/28*%
X179210000Y-14020000D03*
%TO.P,J4,27*%
%TO.N,/27*%
X181750000Y-14020000D03*
%TO.P,J4,26*%
%TO.N,/26*%
X179210000Y-11480000D03*
%TO.P,J4,25*%
%TO.N,/25*%
X181750000Y-11480000D03*
%TO.P,J4,24*%
%TO.N,/24*%
X179210000Y-8940000D03*
%TO.P,J4,23*%
%TO.N,/23*%
X181750000Y-8940000D03*
%TO.P,J4,22*%
%TO.N,/22*%
X179210000Y-6400000D03*
%TO.P,J4,21*%
%TO.N,/21*%
X181750000Y-6400000D03*
%TO.P,J4,20*%
%TO.N,/20*%
X179210000Y-3860000D03*
%TO.P,J4,19*%
%TO.N,/19*%
X181750000Y-3860000D03*
%TO.P,J4,18*%
%TO.N,/18*%
X179210000Y-1320000D03*
%TO.P,J4,17*%
%TO.N,/17*%
X181750000Y-1320000D03*
%TO.P,J4,16*%
%TO.N,/16*%
X179210000Y1220000D03*
%TO.P,J4,15*%
%TO.N,/15*%
X181750000Y1220000D03*
%TO.P,J4,14*%
%TO.N,/14*%
X179210000Y3760000D03*
%TO.P,J4,13*%
%TO.N,/13*%
X181750000Y3760000D03*
%TO.P,J4,12*%
%TO.N,/12*%
X179210000Y6300000D03*
%TO.P,J4,11*%
%TO.N,/11*%
X181750000Y6300000D03*
%TO.P,J4,10*%
%TO.N,/10*%
X179210000Y8840000D03*
%TO.P,J4,9*%
%TO.N,/9*%
X181750000Y8840000D03*
%TO.P,J4,8*%
%TO.N,/8*%
X179210000Y11380000D03*
%TO.P,J4,7*%
%TO.N,/7*%
X181750000Y11380000D03*
%TO.P,J4,6*%
%TO.N,/6*%
X179210000Y13920000D03*
%TO.P,J4,5*%
%TO.N,/5*%
X181750000Y13920000D03*
%TO.P,J4,4*%
%TO.N,/4*%
X179210000Y16460000D03*
%TO.P,J4,3*%
%TO.N,/3*%
X181750000Y16460000D03*
%TO.P,J4,2*%
%TO.N,/2*%
X179210000Y19000000D03*
D13*
%TO.P,J4,1*%
%TO.N,/1*%
X181750000Y19000000D03*
%TD*%
D12*
%TO.P,J2,36*%
%TO.N,Net-(J1-PadB18)*%
X170460000Y-24180000D03*
%TO.P,J2,35*%
%TO.N,/A18*%
X173000000Y-24180000D03*
%TO.P,J2,34*%
%TO.N,Net-(J1-PadB17)*%
X170460000Y-21640000D03*
%TO.P,J2,33*%
%TO.N,/A17*%
X173000000Y-21640000D03*
%TO.P,J2,32*%
%TO.N,Net-(J1-PadB16)*%
X170460000Y-19100000D03*
%TO.P,J2,31*%
%TO.N,/A16*%
X173000000Y-19100000D03*
%TO.P,J2,30*%
%TO.N,Net-(J1-PadB15)*%
X170460000Y-16560000D03*
%TO.P,J2,29*%
%TO.N,/A15*%
X173000000Y-16560000D03*
%TO.P,J2,28*%
%TO.N,Net-(J1-PadB14)*%
X170460000Y-14020000D03*
%TO.P,J2,27*%
%TO.N,/A14*%
X173000000Y-14020000D03*
%TO.P,J2,26*%
%TO.N,Net-(J1-PadB13)*%
X170460000Y-11480000D03*
%TO.P,J2,25*%
%TO.N,/A13*%
X173000000Y-11480000D03*
%TO.P,J2,24*%
%TO.N,Net-(J1-PadB12)*%
X170460000Y-8940000D03*
%TO.P,J2,23*%
%TO.N,/A12*%
X173000000Y-8940000D03*
%TO.P,J2,22*%
%TO.N,Net-(J1-PadB11)*%
X170460000Y-6400000D03*
%TO.P,J2,21*%
%TO.N,/A11*%
X173000000Y-6400000D03*
%TO.P,J2,20*%
%TO.N,Net-(J1-PadB10)*%
X170460000Y-3860000D03*
%TO.P,J2,19*%
%TO.N,/A10*%
X173000000Y-3860000D03*
%TO.P,J2,18*%
%TO.N,Net-(J1-PadB9)*%
X170460000Y-1320000D03*
%TO.P,J2,17*%
%TO.N,/A9*%
X173000000Y-1320000D03*
%TO.P,J2,16*%
%TO.N,Net-(J1-PadB8)*%
X170460000Y1220000D03*
%TO.P,J2,15*%
%TO.N,/A8*%
X173000000Y1220000D03*
%TO.P,J2,14*%
%TO.N,Net-(J1-PadB7)*%
X170460000Y3760000D03*
%TO.P,J2,13*%
%TO.N,/A7*%
X173000000Y3760000D03*
%TO.P,J2,12*%
%TO.N,Net-(J1-PadB6)*%
X170460000Y6300000D03*
%TO.P,J2,11*%
%TO.N,/A6*%
X173000000Y6300000D03*
%TO.P,J2,10*%
%TO.N,Net-(J1-PadB5)*%
X170460000Y8840000D03*
%TO.P,J2,9*%
%TO.N,/A5*%
X173000000Y8840000D03*
%TO.P,J2,8*%
%TO.N,Net-(J1-PadB4)*%
X170460000Y11380000D03*
%TO.P,J2,7*%
%TO.N,/A4*%
X173000000Y11380000D03*
%TO.P,J2,6*%
%TO.N,Net-(J1-PadB3)*%
X170460000Y13920000D03*
%TO.P,J2,5*%
%TO.N,/A3*%
X173000000Y13920000D03*
%TO.P,J2,4*%
%TO.N,Net-(J1-PadB2)*%
X170460000Y16460000D03*
%TO.P,J2,3*%
%TO.N,/A2*%
X173000000Y16460000D03*
%TO.P,J2,2*%
%TO.N,Net-(J1-PadB1)*%
X170460000Y19000000D03*
D13*
%TO.P,J2,1*%
%TO.N,/A1*%
X173000000Y19000000D03*
%TD*%
D14*
%TO.P,J1,S1*%
%TO.N,GND*%
X160830000Y6150000D03*
%TO.P,J1,S2*%
X157590000Y6150000D03*
%TO.P,J1,S3*%
X153590000Y6150000D03*
%TO.P,J1,S4*%
X151560000Y6150000D03*
%TO.P,J1,S5*%
X161830000Y-11650000D03*
%TO.P,J1,S6*%
X157590000Y-11650000D03*
%TO.P,J1,S7*%
X153590000Y-11650000D03*
%TO.P,J1,S8*%
X151560000Y-11650000D03*
%TD*%
D15*
%TO.N,/A1*%
X152700000Y4850000D03*
%TO.N,/A2*%
X155550000Y3050000D03*
%TO.N,/A3*%
X154500000Y2250000D03*
%TO.N,/A4*%
X155500000Y1450000D03*
%TO.N,/A5*%
X154500000Y650000D03*
%TO.N,/A6*%
X155500000Y-150000D03*
%TO.N,/A7*%
X154500000Y-950000D03*
%TO.N,/A8*%
X155500000Y-1750000D03*
%TO.N,/A9*%
X154500000Y-2550000D03*
%TO.N,/A10*%
X155500000Y-3350000D03*
%TO.N,/A11*%
X154500000Y-4150000D03*
%TO.N,/A12*%
X155450000Y-4950000D03*
%TO.N,/A13*%
X154450000Y-5750000D03*
%TO.N,/A14*%
X155500000Y-6550000D03*
%TO.N,/A15*%
X154500000Y-7350000D03*
%TO.N,/A16*%
X155500000Y-8150000D03*
%TO.N,/A17*%
X154550000Y-8950000D03*
%TO.N,/A18*%
X159500000Y-10300000D03*
%TD*%
D16*
%TO.N,/A1*%
X164150000Y5150000D02*
X162950000Y3950000D01*
X164150000Y11889002D02*
X164150000Y5150000D01*
X153600000Y3950000D02*
X152700000Y4850000D01*
X162950000Y3950000D02*
X153600000Y3950000D01*
X170010998Y17750000D02*
X164150000Y11889002D01*
X171700000Y17750000D02*
X170010998Y17750000D01*
X172950000Y19000000D02*
X171700000Y17750000D01*
X173000000Y19000000D02*
X172950000Y19000000D01*
%TO.N,/A2*%
X163600000Y3050000D02*
X155550000Y3050000D01*
X164975000Y4425000D02*
X163600000Y3050000D01*
X164975000Y10725000D02*
X164975000Y4425000D01*
X169450000Y15200000D02*
X164975000Y10725000D01*
X171740000Y15200000D02*
X169450000Y15200000D01*
X173000000Y16460000D02*
X171740000Y15200000D01*
%TO.N,/A3*%
X164150000Y2250000D02*
X154500000Y2250000D01*
X165700000Y3800000D02*
X164150000Y2250000D01*
X173000000Y13920000D02*
X171730000Y12650000D01*
X169750000Y12650000D02*
X165700000Y8600000D01*
X165700000Y8600000D02*
X165700000Y3800000D01*
X171730000Y12650000D02*
X169750000Y12650000D01*
%TO.N,/A4*%
X171720000Y10100000D02*
X169600000Y10100000D01*
X169600000Y10100000D02*
X166700000Y7200000D01*
X166700000Y7200000D02*
X166700000Y3450000D01*
X173000000Y11380000D02*
X171720000Y10100000D01*
X166700000Y3450000D02*
X164700000Y1450000D01*
X164700000Y1450000D02*
X155500000Y1450000D01*
%TO.N,/A5*%
X171824999Y7664999D02*
X171764999Y7664999D01*
X173000000Y8840000D02*
X171824999Y7664999D01*
X171764999Y7664999D02*
X171650000Y7550000D01*
X165250000Y650000D02*
X154500000Y650000D01*
X167750000Y3150000D02*
X165250000Y650000D01*
X169550000Y7550000D02*
X167750000Y5750000D01*
X167750000Y5750000D02*
X167750000Y3150000D01*
X171650000Y7550000D02*
X169550000Y7550000D01*
%TO.N,/A6*%
X171750000Y5050000D02*
X173000000Y6300000D01*
X170010998Y5050000D02*
X171750000Y5050000D01*
X168560998Y3600000D02*
X170010998Y5050000D01*
X168560998Y2539002D02*
X168560998Y3600000D01*
X165871996Y-150000D02*
X168560998Y2539002D01*
X155500000Y-150000D02*
X165871996Y-150000D01*
%TO.N,/A7*%
X173000000Y3760000D02*
X171790000Y2550000D01*
X166550998Y-950000D02*
X154500000Y-950000D01*
X170050998Y2550000D02*
X166550998Y-950000D01*
X171790000Y2550000D02*
X170050998Y2550000D01*
%TO.N,/A8*%
X167750000Y-1750000D02*
X155500000Y-1750000D01*
X171750000Y-50000D02*
X169450000Y-50000D01*
X171780000Y-20000D02*
X171750000Y-50000D01*
X169450000Y-50000D02*
X167750000Y-1750000D01*
X171780000Y0D02*
X171780000Y-20000D01*
X173000000Y1220000D02*
X171780000Y0D01*
%TO.N,/A9*%
X154600000Y-2600000D02*
X154600000Y-2600000D01*
X154550000Y-2600000D02*
X154500000Y-2550000D01*
X156400000Y-2600000D02*
X154550000Y-2600000D01*
X156400000Y-2600000D02*
X154600000Y-2600000D01*
X171720000Y-2600000D02*
X173000000Y-1320000D01*
X156400000Y-2600000D02*
X171720000Y-2600000D01*
%TO.N,/A10*%
X173000000Y-3860000D02*
X171760000Y-5100000D01*
X171760000Y-5100000D02*
X169450000Y-5100000D01*
X167700000Y-3350000D02*
X155500000Y-3350000D01*
X169450000Y-5100000D02*
X167700000Y-3350000D01*
%TO.N,/A11*%
X173000000Y-6400000D02*
X171750000Y-7650000D01*
X169970998Y-7650000D02*
X166470998Y-4150000D01*
X171750000Y-7650000D02*
X169970998Y-7650000D01*
X166470998Y-4150000D02*
X154500000Y-4150000D01*
X154500000Y-4150000D02*
X154500000Y-4150000D01*
%TO.N,/A12*%
X171740000Y-10200000D02*
X173000000Y-8940000D01*
X169980998Y-10200000D02*
X171740000Y-10200000D01*
X168540499Y-8140499D02*
X168540499Y-8759501D01*
X168540499Y-8759501D02*
X169980998Y-10200000D01*
X165350000Y-4950000D02*
X168540499Y-8140499D01*
X155450000Y-4950000D02*
X165350000Y-4950000D01*
%TO.N,/A13*%
X164200000Y-5750000D02*
X154450000Y-5750000D01*
X168650000Y-10200000D02*
X164200000Y-5750000D01*
X168650000Y-11950000D02*
X168650000Y-10200000D01*
X169450000Y-12750000D02*
X168650000Y-11950000D01*
X171730000Y-12750000D02*
X169450000Y-12750000D01*
X173000000Y-11480000D02*
X171730000Y-12750000D01*
%TO.N,/A14*%
X155500000Y-6550000D02*
X155500000Y-6550000D01*
X167750000Y-13350000D02*
X167750000Y-10700000D01*
X163600000Y-6550000D02*
X155500000Y-6550000D01*
X169699002Y-15299002D02*
X167750000Y-13350000D01*
X171720998Y-15299002D02*
X169699002Y-15299002D01*
X167750000Y-10700000D02*
X163600000Y-6550000D01*
X173000000Y-14020000D02*
X171720998Y-15299002D01*
%TO.N,/A15*%
X154500000Y-7350000D02*
X154500000Y-7350000D01*
X163200000Y-7350000D02*
X154500000Y-7350000D01*
X166900000Y-11050000D02*
X163200000Y-7350000D01*
X166900000Y-15000000D02*
X166900000Y-11050000D01*
X169750000Y-17850000D02*
X166900000Y-15000000D01*
X171710000Y-17850000D02*
X169750000Y-17850000D01*
X173000000Y-16560000D02*
X171710000Y-17850000D01*
%TO.N,/A16*%
X155500000Y-8150000D02*
X155500000Y-8150000D01*
X171750000Y-20350000D02*
X173000000Y-19100000D01*
X166050000Y-16429002D02*
X169970998Y-20350000D01*
X166050000Y-11250000D02*
X166050000Y-16429002D01*
X169970998Y-20350000D02*
X171750000Y-20350000D01*
X162950000Y-8150000D02*
X166050000Y-11250000D01*
X155500000Y-8150000D02*
X162950000Y-8150000D01*
%TO.N,/A17*%
X171824999Y-22815001D02*
X173000000Y-21640000D01*
X171800000Y-22900000D02*
X171824999Y-22875001D01*
X165300000Y-18219002D02*
X169980998Y-22900000D01*
X165300000Y-11750000D02*
X165300000Y-18219002D01*
X169980998Y-22900000D02*
X171800000Y-22900000D01*
X162500000Y-8950000D02*
X165300000Y-11750000D01*
X171824999Y-22875001D02*
X171824999Y-22815001D01*
X154550000Y-8950000D02*
X162500000Y-8950000D01*
%TO.N,/A18*%
X173000000Y-24180000D02*
X171630000Y-25550000D01*
X164400000Y-20350000D02*
X169600000Y-25550000D01*
X162050000Y-9800000D02*
X164400000Y-12150000D01*
X160000000Y-9800000D02*
X162050000Y-9800000D01*
X164400000Y-12150000D02*
X164400000Y-20350000D01*
X159500000Y-10300000D02*
X160000000Y-9800000D01*
X171630000Y-25550000D02*
X169600000Y-25550000D01*
%TO.N,GND*%
X199200000Y7700000D02*
X199200000Y7900000D01*
%TO.N,/35*%
X197500000Y-10770000D02*
X196230000Y-10770000D01*
X182820000Y-24180000D02*
X181750000Y-24180000D01*
X196230000Y-10770000D02*
X182820000Y-24180000D01*
%TO.N,/33*%
X197500000Y-9770000D02*
X195030000Y-9770000D01*
X183160000Y-21640000D02*
X181750000Y-21640000D01*
X195030000Y-9770000D02*
X183160000Y-21640000D01*
%TO.N,/31*%
X197500000Y-8770000D02*
X193330000Y-8770000D01*
X183000000Y-19100000D02*
X181750000Y-19100000D01*
X193330000Y-8770000D02*
X183000000Y-19100000D01*
%TO.N,/29*%
X197500000Y-7770000D02*
X191730000Y-7770000D01*
X182940000Y-16560000D02*
X181750000Y-16560000D01*
X191730000Y-7770000D02*
X182940000Y-16560000D01*
%TO.N,/27*%
X197500000Y-6770000D02*
X190230000Y-6770000D01*
X182980000Y-14020000D02*
X181750000Y-14020000D01*
X190230000Y-6770000D02*
X182980000Y-14020000D01*
%TO.N,/25*%
X197500000Y-5770000D02*
X188730000Y-5770000D01*
X183020000Y-11480000D02*
X181750000Y-11480000D01*
X188730000Y-5770000D02*
X183020000Y-11480000D01*
%TO.N,/23*%
X197500000Y-4770000D02*
X187130000Y-4770000D01*
X182960000Y-8940000D02*
X181750000Y-8940000D01*
X187130000Y-4770000D02*
X182960000Y-8940000D01*
%TO.N,/21*%
X197500000Y-3770000D02*
X185730000Y-3770000D01*
X183100000Y-6400000D02*
X181750000Y-6400000D01*
X185730000Y-3770000D02*
X183100000Y-6400000D01*
%TO.N,/19*%
X197500000Y-2770000D02*
X184130000Y-2770000D01*
X183040000Y-3860000D02*
X181750000Y-3860000D01*
X184130000Y-2770000D02*
X183040000Y-3860000D01*
%TO.N,/17*%
X197500000Y-1770000D02*
X183370000Y-1770000D01*
X182920000Y-1320000D02*
X181750000Y-1320000D01*
X183370000Y-1770000D02*
X182920000Y-1320000D01*
%TO.N,/15*%
X197500000Y-770000D02*
X184970000Y-770000D01*
X182980000Y1220000D02*
X181750000Y1220000D01*
X184970000Y-770000D02*
X182980000Y1220000D01*
%TO.N,/13*%
X197500000Y230000D02*
X186570000Y230000D01*
X183040000Y3760000D02*
X181750000Y3760000D01*
X186570000Y230000D02*
X183040000Y3760000D01*
%TO.N,/11*%
X197500000Y1230000D02*
X187970000Y1230000D01*
X182900000Y6300000D02*
X181750000Y6300000D01*
X187970000Y1230000D02*
X182900000Y6300000D01*
%TO.N,/9*%
X197500000Y2230000D02*
X189670000Y2230000D01*
X183060000Y8840000D02*
X181750000Y8840000D01*
X189670000Y2230000D02*
X183060000Y8840000D01*
%TO.N,/7*%
X197500000Y3230000D02*
X191470000Y3230000D01*
X183320000Y11380000D02*
X181750000Y11380000D01*
X191470000Y3230000D02*
X183320000Y11380000D01*
%TO.N,/5*%
X197500000Y4230000D02*
X192970000Y4230000D01*
X183280000Y13920000D02*
X181750000Y13920000D01*
X192970000Y4230000D02*
X183280000Y13920000D01*
%TO.N,/3*%
X197500000Y5230000D02*
X194170000Y5230000D01*
X182940000Y16460000D02*
X181750000Y16460000D01*
X194170000Y5230000D02*
X182940000Y16460000D01*
%TO.N,/1*%
X197500000Y6230000D02*
X195870000Y6230000D01*
X183100000Y19000000D02*
X181750000Y19000000D01*
X195870000Y6230000D02*
X183100000Y19000000D01*
%TO.N,/36*%
X197500000Y-11270000D02*
X196730000Y-11270000D01*
X196730000Y-11270000D02*
X182200000Y-25800000D01*
X180830000Y-25800000D02*
X179210000Y-24180000D01*
X182200000Y-25800000D02*
X180830000Y-25800000D01*
%TO.N,/34*%
X197500000Y-10270000D02*
X195830000Y-10270000D01*
X195830000Y-10270000D02*
X183200000Y-22900000D01*
X180470000Y-22900000D02*
X179210000Y-21640000D01*
X183200000Y-22900000D02*
X180470000Y-22900000D01*
%TO.N,/32*%
X197500000Y-9270000D02*
X194230000Y-9270000D01*
X194230000Y-9270000D02*
X183200000Y-20300000D01*
X180410000Y-20300000D02*
X179210000Y-19100000D01*
X183200000Y-20300000D02*
X180410000Y-20300000D01*
%TO.N,/30*%
X197500000Y-8270000D02*
X192430000Y-8270000D01*
X192430000Y-8270000D02*
X182800000Y-17900000D01*
X180550000Y-17900000D02*
X179210000Y-16560000D01*
X182800000Y-17900000D02*
X180550000Y-17900000D01*
%TO.N,/28*%
X197500000Y-7270000D02*
X190930000Y-7270000D01*
X190930000Y-7270000D02*
X182900000Y-15300000D01*
X180490000Y-15300000D02*
X179210000Y-14020000D01*
X182900000Y-15300000D02*
X180490000Y-15300000D01*
%TO.N,/26*%
X197500000Y-6270000D02*
X189530000Y-6270000D01*
X189530000Y-6270000D02*
X183100000Y-12700000D01*
X180430000Y-12700000D02*
X179210000Y-11480000D01*
X183100000Y-12700000D02*
X180430000Y-12700000D01*
%TO.N,/24*%
X197500000Y-5270000D02*
X187930000Y-5270000D01*
X187930000Y-5270000D02*
X183000000Y-10200000D01*
X180470000Y-10200000D02*
X179210000Y-8940000D01*
X183000000Y-10200000D02*
X180470000Y-10200000D01*
%TO.N,/22*%
X180510000Y-7700000D02*
X179210000Y-6400000D01*
X186530000Y-4270000D02*
X183100000Y-7700000D01*
X183100000Y-7700000D02*
X180510000Y-7700000D01*
X197500000Y-4270000D02*
X186530000Y-4270000D01*
%TO.N,/20*%
X197500000Y-3270000D02*
X184830000Y-3270000D01*
X180574999Y-5224999D02*
X179210000Y-3860000D01*
X182875001Y-5224999D02*
X180574999Y-5224999D01*
X184830000Y-3270000D02*
X182875001Y-5224999D01*
%TO.N,/18*%
X197500000Y-2270000D02*
X182930000Y-2270000D01*
X182930000Y-2270000D02*
X182600000Y-2600000D01*
X180490000Y-2600000D02*
X179210000Y-1320000D01*
X182600000Y-2600000D02*
X180490000Y-2600000D01*
%TO.N,/16*%
X197500000Y-1270000D02*
X184370000Y-1270000D01*
X184370000Y-1270000D02*
X183200000Y-100000D01*
X180530000Y-100000D02*
X179210000Y1220000D01*
X183200000Y-100000D02*
X180530000Y-100000D01*
%TO.N,/14*%
X197500000Y-270000D02*
X185470000Y-270000D01*
X185470000Y-270000D02*
X182700000Y2500000D01*
X180470000Y2500000D02*
X179210000Y3760000D01*
X182700000Y2500000D02*
X180470000Y2500000D01*
%TO.N,/12*%
X197500000Y730000D02*
X187270000Y730000D01*
X183000000Y5000000D02*
X180510000Y5000000D01*
X187270000Y730000D02*
X183000000Y5000000D01*
X180510000Y5000000D02*
X179210000Y6300000D01*
%TO.N,/10*%
X197500000Y1730000D02*
X188970000Y1730000D01*
X188970000Y1730000D02*
X183100000Y7600000D01*
X180450000Y7600000D02*
X179210000Y8840000D01*
X183100000Y7600000D02*
X180450000Y7600000D01*
%TO.N,/8*%
X197500000Y2730000D02*
X190570000Y2730000D01*
X190570000Y2730000D02*
X183200000Y10100000D01*
X180490000Y10100000D02*
X179210000Y11380000D01*
X183200000Y10100000D02*
X180490000Y10100000D01*
%TO.N,/6*%
X197500000Y3730000D02*
X192070000Y3730000D01*
X192070000Y3730000D02*
X183100000Y12700000D01*
X180430000Y12700000D02*
X179210000Y13920000D01*
X183100000Y12700000D02*
X180430000Y12700000D01*
%TO.N,/4*%
X197500000Y4730000D02*
X193470000Y4730000D01*
X193470000Y4730000D02*
X183000000Y15200000D01*
X180470000Y15200000D02*
X179210000Y16460000D01*
X183000000Y15200000D02*
X180470000Y15200000D01*
%TO.N,/2*%
X197500000Y5730000D02*
X194870000Y5730000D01*
X180574999Y17635001D02*
X179210000Y19000000D01*
X182964999Y17635001D02*
X180574999Y17635001D01*
X194870000Y5730000D02*
X182964999Y17635001D01*
%TD*%
D17*
%TO.N,GND*%
X198725555Y21767779D02*
X199424940Y21562602D01*
X200072904Y21228880D01*
X200646074Y20778647D01*
X201123762Y20228161D01*
X201488742Y19597270D01*
X201727836Y18908752D01*
X201835790Y18164210D01*
X201840000Y17991937D01*
X201840001Y-22968581D01*
X201767779Y-23725555D01*
X201562602Y-24424940D01*
X201228878Y-25072906D01*
X200778650Y-25646072D01*
X200228159Y-26123763D01*
X199597270Y-26488741D01*
X198908752Y-26727836D01*
X198164210Y-26835790D01*
X197991937Y-26840000D01*
X153931409Y-26840000D01*
X153174445Y-26767779D01*
X152475060Y-26562602D01*
X151827094Y-26228878D01*
X151253928Y-25778650D01*
X150776237Y-25228159D01*
X150411259Y-24597270D01*
X150172164Y-23908752D01*
X150064210Y-23164210D01*
X150060000Y-22991937D01*
X150060000Y-22279872D01*
X151865000Y-22279872D01*
X151865000Y-22720128D01*
X151950890Y-23151925D01*
X152119369Y-23558669D01*
X152363962Y-23924729D01*
X152675271Y-24236038D01*
X153041331Y-24480631D01*
X153448075Y-24649110D01*
X153879872Y-24735000D01*
X154320128Y-24735000D01*
X154751925Y-24649110D01*
X155158669Y-24480631D01*
X155524729Y-24236038D01*
X155836038Y-23924729D01*
X156080631Y-23558669D01*
X156249110Y-23151925D01*
X156335000Y-22720128D01*
X156335000Y-22279872D01*
X156249110Y-21848075D01*
X156080631Y-21441331D01*
X155836038Y-21075271D01*
X155524729Y-20763962D01*
X155158669Y-20519369D01*
X154751925Y-20350890D01*
X154320128Y-20265000D01*
X153879872Y-20265000D01*
X153448075Y-20350890D01*
X153041331Y-20519369D01*
X152675271Y-20763962D01*
X152363962Y-21075271D01*
X152119369Y-21441331D01*
X151950890Y-21848075D01*
X151865000Y-22279872D01*
X150060000Y-22279872D01*
X150060000Y-12538387D01*
X150851218Y-12538387D01*
X150905093Y-12767468D01*
X151135684Y-12873763D01*
X151382581Y-12933028D01*
X151636296Y-12942988D01*
X151887079Y-12903259D01*
X152125293Y-12815368D01*
X152214907Y-12767468D01*
X152268782Y-12538387D01*
X152881218Y-12538387D01*
X152935093Y-12767468D01*
X153165684Y-12873763D01*
X153412581Y-12933028D01*
X153666296Y-12942988D01*
X153917079Y-12903259D01*
X154155293Y-12815368D01*
X154244907Y-12767468D01*
X154298782Y-12538387D01*
X156881218Y-12538387D01*
X156935093Y-12767468D01*
X157165684Y-12873763D01*
X157412581Y-12933028D01*
X157666296Y-12942988D01*
X157917079Y-12903259D01*
X158155293Y-12815368D01*
X158244907Y-12767468D01*
X158298782Y-12538387D01*
X161121218Y-12538387D01*
X161175093Y-12767468D01*
X161405684Y-12873763D01*
X161652581Y-12933028D01*
X161906296Y-12942988D01*
X162157079Y-12903259D01*
X162395293Y-12815368D01*
X162484907Y-12767468D01*
X162538782Y-12538387D01*
X161830000Y-11829605D01*
X161121218Y-12538387D01*
X158298782Y-12538387D01*
X157590000Y-11829605D01*
X156881218Y-12538387D01*
X154298782Y-12538387D01*
X153590000Y-11829605D01*
X152881218Y-12538387D01*
X152268782Y-12538387D01*
X151560000Y-11829605D01*
X150851218Y-12538387D01*
X150060000Y-12538387D01*
X150060000Y-11726296D01*
X150267012Y-11726296D01*
X150306741Y-11977079D01*
X150394632Y-12215293D01*
X150442532Y-12304907D01*
X150671613Y-12358782D01*
X151380395Y-11650000D01*
X151739605Y-11650000D01*
X152448387Y-12358782D01*
X152575000Y-12329005D01*
X152701613Y-12358782D01*
X153410395Y-11650000D01*
X152701613Y-10941218D01*
X152575000Y-10970995D01*
X152448387Y-10941218D01*
X151739605Y-11650000D01*
X151380395Y-11650000D01*
X150671613Y-10941218D01*
X150442532Y-10995093D01*
X150336237Y-11225684D01*
X150276972Y-11472581D01*
X150267012Y-11726296D01*
X150060000Y-11726296D01*
X150060000Y-10761613D01*
X150851218Y-10761613D01*
X151560000Y-11470395D01*
X152268782Y-10761613D01*
X152214907Y-10532532D01*
X151984316Y-10426237D01*
X151737419Y-10366972D01*
X151483704Y-10357012D01*
X151232921Y-10396741D01*
X150994707Y-10484632D01*
X150905093Y-10532532D01*
X150851218Y-10761613D01*
X150060000Y-10761613D01*
X150060000Y5261613D01*
X150851218Y5261613D01*
X150905093Y5032532D01*
X151135684Y4926237D01*
X151382581Y4866972D01*
X151636296Y4857012D01*
X151665000Y4861559D01*
X151665000Y4748061D01*
X151704774Y4548102D01*
X151782795Y4359744D01*
X151896063Y4190226D01*
X152040226Y4046063D01*
X152209744Y3932795D01*
X152398102Y3854774D01*
X152598061Y3815000D01*
X152660198Y3815000D01*
X153036201Y3438997D01*
X153059999Y3409999D01*
X153175724Y3315026D01*
X153307753Y3244454D01*
X153451014Y3200997D01*
X153562667Y3190000D01*
X153562676Y3190000D01*
X153599999Y3186324D01*
X153637322Y3190000D01*
X154064776Y3190000D01*
X154009744Y3167205D01*
X153840226Y3053937D01*
X153696063Y2909774D01*
X153582795Y2740256D01*
X153504774Y2551898D01*
X153465000Y2351939D01*
X153465000Y2148061D01*
X153504774Y1948102D01*
X153582795Y1759744D01*
X153696063Y1590226D01*
X153836289Y1450000D01*
X153696063Y1309774D01*
X153582795Y1140256D01*
X153504774Y951898D01*
X153465000Y751939D01*
X153465000Y548061D01*
X153504774Y348102D01*
X153582795Y159744D01*
X153696063Y-9774D01*
X153836289Y-150000D01*
X153696063Y-290226D01*
X153582795Y-459744D01*
X153504774Y-648102D01*
X153465000Y-848061D01*
X153465000Y-1051939D01*
X153504774Y-1251898D01*
X153582795Y-1440256D01*
X153696063Y-1609774D01*
X153836289Y-1750000D01*
X153696063Y-1890226D01*
X153582795Y-2059744D01*
X153504774Y-2248102D01*
X153465000Y-2448061D01*
X153465000Y-2651939D01*
X153504774Y-2851898D01*
X153582795Y-3040256D01*
X153696063Y-3209774D01*
X153836289Y-3350000D01*
X153696063Y-3490226D01*
X153582795Y-3659744D01*
X153504774Y-3848102D01*
X153465000Y-4048061D01*
X153465000Y-4251939D01*
X153504774Y-4451898D01*
X153582795Y-4640256D01*
X153696063Y-4809774D01*
X153815479Y-4929190D01*
X153790226Y-4946063D01*
X153646063Y-5090226D01*
X153532795Y-5259744D01*
X153454774Y-5448102D01*
X153415000Y-5648061D01*
X153415000Y-5851939D01*
X153454774Y-6051898D01*
X153532795Y-6240256D01*
X153646063Y-6409774D01*
X153790226Y-6553937D01*
X153815479Y-6570810D01*
X153696063Y-6690226D01*
X153582795Y-6859744D01*
X153504774Y-7048102D01*
X153465000Y-7248061D01*
X153465000Y-7451939D01*
X153504774Y-7651898D01*
X153582795Y-7840256D01*
X153696063Y-8009774D01*
X153840226Y-8153937D01*
X153865479Y-8170810D01*
X153746063Y-8290226D01*
X153632795Y-8459744D01*
X153554774Y-8648102D01*
X153515000Y-8848061D01*
X153515000Y-9051939D01*
X153554774Y-9251898D01*
X153632795Y-9440256D01*
X153746063Y-9609774D01*
X153890226Y-9753937D01*
X154059744Y-9867205D01*
X154248102Y-9945226D01*
X154410374Y-9977504D01*
X154340475Y-10082115D01*
X154234186Y-10338718D01*
X154199772Y-10511726D01*
X154014316Y-10426237D01*
X153767419Y-10366972D01*
X153513704Y-10357012D01*
X153262921Y-10396741D01*
X153024707Y-10484632D01*
X152935093Y-10532532D01*
X152881218Y-10761613D01*
X153590000Y-11470395D01*
X153604143Y-11456253D01*
X153783748Y-11635858D01*
X153769605Y-11650000D01*
X154478387Y-12358782D01*
X154707468Y-12304907D01*
X154813763Y-12074316D01*
X154844211Y-11947471D01*
X154922115Y-11999525D01*
X155178718Y-12105814D01*
X155451127Y-12160000D01*
X155728873Y-12160000D01*
X156001282Y-12105814D01*
X156257885Y-11999525D01*
X156332408Y-11949730D01*
X156336741Y-11977079D01*
X156424632Y-12215293D01*
X156472532Y-12304907D01*
X156701613Y-12358782D01*
X157410395Y-11650000D01*
X157769605Y-11650000D01*
X158478387Y-12358782D01*
X158707468Y-12304907D01*
X158813763Y-12074316D01*
X158873028Y-11827419D01*
X158876997Y-11726296D01*
X160537012Y-11726296D01*
X160576741Y-11977079D01*
X160664632Y-12215293D01*
X160712532Y-12304907D01*
X160941613Y-12358782D01*
X161650395Y-11650000D01*
X160941613Y-10941218D01*
X160712532Y-10995093D01*
X160606237Y-11225684D01*
X160546972Y-11472581D01*
X160537012Y-11726296D01*
X158876997Y-11726296D01*
X158882988Y-11573704D01*
X158843259Y-11322921D01*
X158755368Y-11084707D01*
X158707468Y-10995093D01*
X158478387Y-10941218D01*
X157769605Y-11650000D01*
X157410395Y-11650000D01*
X157396253Y-11635858D01*
X157575858Y-11456253D01*
X157590000Y-11470395D01*
X158298782Y-10761613D01*
X158244907Y-10532532D01*
X158014316Y-10426237D01*
X157767419Y-10366972D01*
X157513704Y-10357012D01*
X157262921Y-10396741D01*
X157024707Y-10484632D01*
X156979631Y-10508726D01*
X156945814Y-10338718D01*
X156839525Y-10082115D01*
X156685218Y-9851178D01*
X156544040Y-9710000D01*
X158649442Y-9710000D01*
X158582795Y-9809744D01*
X158504774Y-9998102D01*
X158465000Y-10198061D01*
X158465000Y-10401939D01*
X158504774Y-10601898D01*
X158582795Y-10790256D01*
X158696063Y-10959774D01*
X158840226Y-11103937D01*
X159009744Y-11217205D01*
X159198102Y-11295226D01*
X159398061Y-11335000D01*
X159601939Y-11335000D01*
X159801898Y-11295226D01*
X159990256Y-11217205D01*
X160159774Y-11103937D01*
X160303937Y-10959774D01*
X160417205Y-10790256D01*
X160495226Y-10601898D01*
X160503560Y-10560000D01*
X161168633Y-10560000D01*
X161121218Y-10761613D01*
X161830000Y-11470395D01*
X161844143Y-11456253D01*
X162023748Y-11635858D01*
X162009605Y-11650000D01*
X162718387Y-12358782D01*
X162947468Y-12304907D01*
X163053763Y-12074316D01*
X163091655Y-11916457D01*
X163640000Y-12464802D01*
X163640001Y-20312668D01*
X163636324Y-20350000D01*
X163650998Y-20498985D01*
X163694454Y-20642246D01*
X163765026Y-20774276D01*
X163818965Y-20840000D01*
X163860000Y-20890001D01*
X163888998Y-20913799D01*
X169036201Y-26061003D01*
X169059999Y-26090001D01*
X169088997Y-26113799D01*
X169175724Y-26184974D01*
X169307753Y-26255546D01*
X169451014Y-26299003D01*
X169600000Y-26313677D01*
X169637333Y-26310000D01*
X171592678Y-26310000D01*
X171630000Y-26313676D01*
X171667322Y-26310000D01*
X171667333Y-26310000D01*
X171778986Y-26299003D01*
X171922247Y-26255546D01*
X172054276Y-26184974D01*
X172170001Y-26090001D01*
X172193804Y-26060997D01*
X172633592Y-25621209D01*
X172853740Y-25665000D01*
X173146260Y-25665000D01*
X173433158Y-25607932D01*
X173703411Y-25495990D01*
X173946632Y-25333475D01*
X174153475Y-25126632D01*
X174315990Y-24883411D01*
X174427932Y-24613158D01*
X174485000Y-24326260D01*
X174485000Y-24033740D01*
X174427932Y-23746842D01*
X174315990Y-23476589D01*
X174153475Y-23233368D01*
X173946632Y-23026525D01*
X173772240Y-22910000D01*
X173946632Y-22793475D01*
X174153475Y-22586632D01*
X174315990Y-22343411D01*
X174427932Y-22073158D01*
X174485000Y-21786260D01*
X174485000Y-21493740D01*
X174427932Y-21206842D01*
X174315990Y-20936589D01*
X174153475Y-20693368D01*
X173946632Y-20486525D01*
X173772240Y-20370000D01*
X173946632Y-20253475D01*
X174153475Y-20046632D01*
X174315990Y-19803411D01*
X174427932Y-19533158D01*
X174485000Y-19246260D01*
X174485000Y-18953740D01*
X174427932Y-18666842D01*
X174315990Y-18396589D01*
X174153475Y-18153368D01*
X173946632Y-17946525D01*
X173772240Y-17830000D01*
X173946632Y-17713475D01*
X174153475Y-17506632D01*
X174315990Y-17263411D01*
X174427932Y-16993158D01*
X174485000Y-16706260D01*
X174485000Y-16413740D01*
X174427932Y-16126842D01*
X174315990Y-15856589D01*
X174153475Y-15613368D01*
X173946632Y-15406525D01*
X173772240Y-15290000D01*
X173946632Y-15173475D01*
X174153475Y-14966632D01*
X174315990Y-14723411D01*
X174427932Y-14453158D01*
X174485000Y-14166260D01*
X174485000Y-13873740D01*
X174427932Y-13586842D01*
X174315990Y-13316589D01*
X174153475Y-13073368D01*
X173946632Y-12866525D01*
X173772240Y-12750000D01*
X173946632Y-12633475D01*
X174153475Y-12426632D01*
X174315990Y-12183411D01*
X174427932Y-11913158D01*
X174485000Y-11626260D01*
X174485000Y-11333740D01*
X174427932Y-11046842D01*
X174315990Y-10776589D01*
X174153475Y-10533368D01*
X173946632Y-10326525D01*
X173772240Y-10210000D01*
X173946632Y-10093475D01*
X174153475Y-9886632D01*
X174315990Y-9643411D01*
X174427932Y-9373158D01*
X174485000Y-9086260D01*
X174485000Y-8793740D01*
X174427932Y-8506842D01*
X174315990Y-8236589D01*
X174153475Y-7993368D01*
X173946632Y-7786525D01*
X173772240Y-7670000D01*
X173946632Y-7553475D01*
X174153475Y-7346632D01*
X174315990Y-7103411D01*
X174427932Y-6833158D01*
X174485000Y-6546260D01*
X174485000Y-6253740D01*
X174427932Y-5966842D01*
X174315990Y-5696589D01*
X174153475Y-5453368D01*
X173946632Y-5246525D01*
X173772240Y-5130000D01*
X173946632Y-5013475D01*
X174153475Y-4806632D01*
X174315990Y-4563411D01*
X174427932Y-4293158D01*
X174485000Y-4006260D01*
X174485000Y-3713740D01*
X174427932Y-3426842D01*
X174315990Y-3156589D01*
X174153475Y-2913368D01*
X173946632Y-2706525D01*
X173772240Y-2590000D01*
X173946632Y-2473475D01*
X174153475Y-2266632D01*
X174315990Y-2023411D01*
X174427932Y-1753158D01*
X174485000Y-1466260D01*
X174485000Y-1173740D01*
X174427932Y-886842D01*
X174315990Y-616589D01*
X174153475Y-373368D01*
X173946632Y-166525D01*
X173772240Y-50000D01*
X173946632Y66525D01*
X174153475Y273368D01*
X174315990Y516589D01*
X174427932Y786842D01*
X174485000Y1073740D01*
X174485000Y1366260D01*
X174427932Y1653158D01*
X174315990Y1923411D01*
X174153475Y2166632D01*
X173946632Y2373475D01*
X173772240Y2490000D01*
X173946632Y2606525D01*
X174153475Y2813368D01*
X174315990Y3056589D01*
X174427932Y3326842D01*
X174485000Y3613740D01*
X174485000Y3906260D01*
X174427932Y4193158D01*
X174315990Y4463411D01*
X174153475Y4706632D01*
X173946632Y4913475D01*
X173772240Y5030000D01*
X173946632Y5146525D01*
X174153475Y5353368D01*
X174315990Y5596589D01*
X174427932Y5866842D01*
X174485000Y6153740D01*
X174485000Y6446260D01*
X174427932Y6733158D01*
X174315990Y7003411D01*
X174153475Y7246632D01*
X173946632Y7453475D01*
X173772240Y7570000D01*
X173946632Y7686525D01*
X174153475Y7893368D01*
X174315990Y8136589D01*
X174427932Y8406842D01*
X174485000Y8693740D01*
X174485000Y8986260D01*
X174427932Y9273158D01*
X174315990Y9543411D01*
X174153475Y9786632D01*
X173946632Y9993475D01*
X173772240Y10110000D01*
X173946632Y10226525D01*
X174153475Y10433368D01*
X174315990Y10676589D01*
X174427932Y10946842D01*
X174485000Y11233740D01*
X174485000Y11526260D01*
X174427932Y11813158D01*
X174315990Y12083411D01*
X174153475Y12326632D01*
X173946632Y12533475D01*
X173772240Y12650000D01*
X173946632Y12766525D01*
X174153475Y12973368D01*
X174315990Y13216589D01*
X174427932Y13486842D01*
X174485000Y13773740D01*
X174485000Y14066260D01*
X174427932Y14353158D01*
X174315990Y14623411D01*
X174153475Y14866632D01*
X173946632Y15073475D01*
X173772240Y15190000D01*
X173946632Y15306525D01*
X174153475Y15513368D01*
X174315990Y15756589D01*
X174427932Y16026842D01*
X174485000Y16313740D01*
X174485000Y16606260D01*
X174427932Y16893158D01*
X174315990Y17163411D01*
X174153475Y17406632D01*
X174021620Y17538487D01*
X174094180Y17560498D01*
X174204494Y17619463D01*
X174301185Y17698815D01*
X174380537Y17795506D01*
X174439502Y17905820D01*
X174475812Y18025518D01*
X174488072Y18150000D01*
X174488072Y19850000D01*
X174475812Y19974482D01*
X174439502Y20094180D01*
X174380537Y20204494D01*
X174301185Y20301185D01*
X174204494Y20380537D01*
X174094180Y20439502D01*
X173974482Y20475812D01*
X173850000Y20488072D01*
X172150000Y20488072D01*
X172025518Y20475812D01*
X171905820Y20439502D01*
X171795506Y20380537D01*
X171698815Y20301185D01*
X171619463Y20204494D01*
X171560498Y20094180D01*
X171538487Y20021620D01*
X171406632Y20153475D01*
X171163411Y20315990D01*
X170893158Y20427932D01*
X170606260Y20485000D01*
X170313740Y20485000D01*
X170026842Y20427932D01*
X169756589Y20315990D01*
X169513368Y20153475D01*
X169306525Y19946632D01*
X169144010Y19703411D01*
X169032068Y19433158D01*
X168975000Y19146260D01*
X168975000Y18853740D01*
X169032068Y18566842D01*
X169144010Y18296589D01*
X169279704Y18093508D01*
X163639003Y12452806D01*
X163609999Y12429003D01*
X163554871Y12361828D01*
X163515026Y12313278D01*
X163444455Y12181249D01*
X163444454Y12181248D01*
X163400997Y12037987D01*
X163390000Y11926334D01*
X163390000Y11926324D01*
X163386324Y11889002D01*
X163390000Y11851679D01*
X163390001Y5464803D01*
X162635199Y4710000D01*
X156892497Y4710000D01*
X156945814Y4838718D01*
X156980228Y5011726D01*
X157165684Y4926237D01*
X157412581Y4866972D01*
X157666296Y4857012D01*
X157917079Y4896741D01*
X158155293Y4984632D01*
X158244907Y5032532D01*
X158298782Y5261613D01*
X160121218Y5261613D01*
X160175093Y5032532D01*
X160405684Y4926237D01*
X160652581Y4866972D01*
X160906296Y4857012D01*
X161157079Y4896741D01*
X161395293Y4984632D01*
X161484907Y5032532D01*
X161538782Y5261613D01*
X160830000Y5970395D01*
X160121218Y5261613D01*
X158298782Y5261613D01*
X157590000Y5970395D01*
X157575858Y5956253D01*
X157396253Y6135858D01*
X157410395Y6150000D01*
X157769605Y6150000D01*
X158478387Y5441218D01*
X158707468Y5495093D01*
X158813763Y5725684D01*
X158873028Y5972581D01*
X158876997Y6073704D01*
X159537012Y6073704D01*
X159576741Y5822921D01*
X159664632Y5584707D01*
X159712532Y5495093D01*
X159941613Y5441218D01*
X160650395Y6150000D01*
X161009605Y6150000D01*
X161718387Y5441218D01*
X161947468Y5495093D01*
X162053763Y5725684D01*
X162113028Y5972581D01*
X162122988Y6226296D01*
X162083259Y6477079D01*
X161995368Y6715293D01*
X161947468Y6804907D01*
X161718387Y6858782D01*
X161009605Y6150000D01*
X160650395Y6150000D01*
X159941613Y6858782D01*
X159712532Y6804907D01*
X159606237Y6574316D01*
X159546972Y6327419D01*
X159537012Y6073704D01*
X158876997Y6073704D01*
X158882988Y6226296D01*
X158843259Y6477079D01*
X158755368Y6715293D01*
X158707468Y6804907D01*
X158478387Y6858782D01*
X157769605Y6150000D01*
X157410395Y6150000D01*
X156701613Y6858782D01*
X156472532Y6804907D01*
X156366237Y6574316D01*
X156335789Y6447471D01*
X156257885Y6499525D01*
X156001282Y6605814D01*
X155728873Y6660000D01*
X155451127Y6660000D01*
X155178718Y6605814D01*
X154922115Y6499525D01*
X154847592Y6449730D01*
X154843259Y6477079D01*
X154755368Y6715293D01*
X154707468Y6804907D01*
X154478387Y6858782D01*
X153769605Y6150000D01*
X153783748Y6135858D01*
X153604143Y5956253D01*
X153590000Y5970395D01*
X153575858Y5956253D01*
X153396253Y6135858D01*
X153410395Y6150000D01*
X152701613Y6858782D01*
X152575000Y6829005D01*
X152448387Y6858782D01*
X151739605Y6150000D01*
X151753748Y6135858D01*
X151574143Y5956253D01*
X151560000Y5970395D01*
X150851218Y5261613D01*
X150060000Y5261613D01*
X150060000Y6073704D01*
X150267012Y6073704D01*
X150306741Y5822921D01*
X150394632Y5584707D01*
X150442532Y5495093D01*
X150671613Y5441218D01*
X151380395Y6150000D01*
X150671613Y6858782D01*
X150442532Y6804907D01*
X150336237Y6574316D01*
X150276972Y6327419D01*
X150267012Y6073704D01*
X150060000Y6073704D01*
X150060000Y7038387D01*
X150851218Y7038387D01*
X151560000Y6329605D01*
X152268782Y7038387D01*
X152881218Y7038387D01*
X153590000Y6329605D01*
X154298782Y7038387D01*
X156881218Y7038387D01*
X157590000Y6329605D01*
X158298782Y7038387D01*
X160121218Y7038387D01*
X160830000Y6329605D01*
X161538782Y7038387D01*
X161484907Y7267468D01*
X161254316Y7373763D01*
X161007419Y7433028D01*
X160753704Y7442988D01*
X160502921Y7403259D01*
X160264707Y7315368D01*
X160175093Y7267468D01*
X160121218Y7038387D01*
X158298782Y7038387D01*
X158244907Y7267468D01*
X158014316Y7373763D01*
X157767419Y7433028D01*
X157513704Y7442988D01*
X157262921Y7403259D01*
X157024707Y7315368D01*
X156935093Y7267468D01*
X156881218Y7038387D01*
X154298782Y7038387D01*
X154244907Y7267468D01*
X154014316Y7373763D01*
X153767419Y7433028D01*
X153513704Y7442988D01*
X153262921Y7403259D01*
X153024707Y7315368D01*
X152935093Y7267468D01*
X152881218Y7038387D01*
X152268782Y7038387D01*
X152214907Y7267468D01*
X151984316Y7373763D01*
X151737419Y7433028D01*
X151483704Y7442988D01*
X151232921Y7403259D01*
X150994707Y7315368D01*
X150905093Y7267468D01*
X150851218Y7038387D01*
X150060000Y7038387D01*
X150060000Y17968591D01*
X150093539Y18320128D01*
X151965000Y18320128D01*
X151965000Y17879872D01*
X152050890Y17448075D01*
X152219369Y17041331D01*
X152463962Y16675271D01*
X152775271Y16363962D01*
X153141331Y16119369D01*
X153548075Y15950890D01*
X153979872Y15865000D01*
X154420128Y15865000D01*
X154851925Y15950890D01*
X155258669Y16119369D01*
X155624729Y16363962D01*
X155936038Y16675271D01*
X156180631Y17041331D01*
X156349110Y17448075D01*
X156435000Y17879872D01*
X156435000Y18320128D01*
X156349110Y18751925D01*
X156180631Y19158669D01*
X155936038Y19524729D01*
X155624729Y19836038D01*
X155258669Y20080631D01*
X154851925Y20249110D01*
X154420128Y20335000D01*
X153979872Y20335000D01*
X153548075Y20249110D01*
X153141331Y20080631D01*
X152775271Y19836038D01*
X152463962Y19524729D01*
X152219369Y19158669D01*
X152050890Y18751925D01*
X151965000Y18320128D01*
X150093539Y18320128D01*
X150132221Y18725555D01*
X150337398Y19424940D01*
X150671120Y20072904D01*
X151121353Y20646074D01*
X151671839Y21123762D01*
X152302730Y21488742D01*
X152335149Y21500000D01*
X175123000Y21500000D01*
X175123000Y-26500000D01*
X175125440Y-26524776D01*
X175132667Y-26548601D01*
X175144403Y-26570557D01*
X175160197Y-26589803D01*
X175179443Y-26605597D01*
X175201399Y-26617333D01*
X175225224Y-26624560D01*
X175250000Y-26627000D01*
X177100000Y-26627000D01*
X177125036Y-26624508D01*
X177148845Y-26617231D01*
X177170777Y-26605449D01*
X177189989Y-26589615D01*
X177205743Y-26570337D01*
X177217434Y-26548356D01*
X177224611Y-26524517D01*
X177227000Y-26499735D01*
X177131905Y19146260D01*
X177725000Y19146260D01*
X177725000Y18853740D01*
X177782068Y18566842D01*
X177894010Y18296589D01*
X178056525Y18053368D01*
X178263368Y17846525D01*
X178437760Y17730000D01*
X178263368Y17613475D01*
X178056525Y17406632D01*
X177894010Y17163411D01*
X177782068Y16893158D01*
X177725000Y16606260D01*
X177725000Y16313740D01*
X177782068Y16026842D01*
X177894010Y15756589D01*
X178056525Y15513368D01*
X178263368Y15306525D01*
X178437760Y15190000D01*
X178263368Y15073475D01*
X178056525Y14866632D01*
X177894010Y14623411D01*
X177782068Y14353158D01*
X177725000Y14066260D01*
X177725000Y13773740D01*
X177782068Y13486842D01*
X177894010Y13216589D01*
X178056525Y12973368D01*
X178263368Y12766525D01*
X178437760Y12650000D01*
X178263368Y12533475D01*
X178056525Y12326632D01*
X177894010Y12083411D01*
X177782068Y11813158D01*
X177725000Y11526260D01*
X177725000Y11233740D01*
X177782068Y10946842D01*
X177894010Y10676589D01*
X178056525Y10433368D01*
X178263368Y10226525D01*
X178437760Y10110000D01*
X178263368Y9993475D01*
X178056525Y9786632D01*
X177894010Y9543411D01*
X177782068Y9273158D01*
X177725000Y8986260D01*
X177725000Y8693740D01*
X177782068Y8406842D01*
X177894010Y8136589D01*
X178056525Y7893368D01*
X178263368Y7686525D01*
X178437760Y7570000D01*
X178263368Y7453475D01*
X178056525Y7246632D01*
X177894010Y7003411D01*
X177782068Y6733158D01*
X177725000Y6446260D01*
X177725000Y6153740D01*
X177782068Y5866842D01*
X177894010Y5596589D01*
X178056525Y5353368D01*
X178263368Y5146525D01*
X178437760Y5030000D01*
X178263368Y4913475D01*
X178056525Y4706632D01*
X177894010Y4463411D01*
X177782068Y4193158D01*
X177725000Y3906260D01*
X177725000Y3613740D01*
X177782068Y3326842D01*
X177894010Y3056589D01*
X178056525Y2813368D01*
X178263368Y2606525D01*
X178437760Y2490000D01*
X178263368Y2373475D01*
X178056525Y2166632D01*
X177894010Y1923411D01*
X177782068Y1653158D01*
X177725000Y1366260D01*
X177725000Y1073740D01*
X177782068Y786842D01*
X177894010Y516589D01*
X178056525Y273368D01*
X178263368Y66525D01*
X178437760Y-50000D01*
X178263368Y-166525D01*
X178056525Y-373368D01*
X177894010Y-616589D01*
X177782068Y-886842D01*
X177725000Y-1173740D01*
X177725000Y-1466260D01*
X177782068Y-1753158D01*
X177894010Y-2023411D01*
X178056525Y-2266632D01*
X178263368Y-2473475D01*
X178437760Y-2590000D01*
X178263368Y-2706525D01*
X178056525Y-2913368D01*
X177894010Y-3156589D01*
X177782068Y-3426842D01*
X177725000Y-3713740D01*
X177725000Y-4006260D01*
X177782068Y-4293158D01*
X177894010Y-4563411D01*
X178056525Y-4806632D01*
X178263368Y-5013475D01*
X178437760Y-5130000D01*
X178263368Y-5246525D01*
X178056525Y-5453368D01*
X177894010Y-5696589D01*
X177782068Y-5966842D01*
X177725000Y-6253740D01*
X177725000Y-6546260D01*
X177782068Y-6833158D01*
X177894010Y-7103411D01*
X178056525Y-7346632D01*
X178263368Y-7553475D01*
X178437760Y-7670000D01*
X178263368Y-7786525D01*
X178056525Y-7993368D01*
X177894010Y-8236589D01*
X177782068Y-8506842D01*
X177725000Y-8793740D01*
X177725000Y-9086260D01*
X177782068Y-9373158D01*
X177894010Y-9643411D01*
X178056525Y-9886632D01*
X178263368Y-10093475D01*
X178437760Y-10210000D01*
X178263368Y-10326525D01*
X178056525Y-10533368D01*
X177894010Y-10776589D01*
X177782068Y-11046842D01*
X177725000Y-11333740D01*
X177725000Y-11626260D01*
X177782068Y-11913158D01*
X177894010Y-12183411D01*
X178056525Y-12426632D01*
X178263368Y-12633475D01*
X178437760Y-12750000D01*
X178263368Y-12866525D01*
X178056525Y-13073368D01*
X177894010Y-13316589D01*
X177782068Y-13586842D01*
X177725000Y-13873740D01*
X177725000Y-14166260D01*
X177782068Y-14453158D01*
X177894010Y-14723411D01*
X178056525Y-14966632D01*
X178263368Y-15173475D01*
X178437760Y-15290000D01*
X178263368Y-15406525D01*
X178056525Y-15613368D01*
X177894010Y-15856589D01*
X177782068Y-16126842D01*
X177725000Y-16413740D01*
X177725000Y-16706260D01*
X177782068Y-16993158D01*
X177894010Y-17263411D01*
X178056525Y-17506632D01*
X178263368Y-17713475D01*
X178437760Y-17830000D01*
X178263368Y-17946525D01*
X178056525Y-18153368D01*
X177894010Y-18396589D01*
X177782068Y-18666842D01*
X177725000Y-18953740D01*
X177725000Y-19246260D01*
X177782068Y-19533158D01*
X177894010Y-19803411D01*
X178056525Y-20046632D01*
X178263368Y-20253475D01*
X178437760Y-20370000D01*
X178263368Y-20486525D01*
X178056525Y-20693368D01*
X177894010Y-20936589D01*
X177782068Y-21206842D01*
X177725000Y-21493740D01*
X177725000Y-21786260D01*
X177782068Y-22073158D01*
X177894010Y-22343411D01*
X178056525Y-22586632D01*
X178263368Y-22793475D01*
X178437760Y-22910000D01*
X178263368Y-23026525D01*
X178056525Y-23233368D01*
X177894010Y-23476589D01*
X177782068Y-23746842D01*
X177725000Y-24033740D01*
X177725000Y-24326260D01*
X177782068Y-24613158D01*
X177894010Y-24883411D01*
X178056525Y-25126632D01*
X178263368Y-25333475D01*
X178506589Y-25495990D01*
X178776842Y-25607932D01*
X179063740Y-25665000D01*
X179356260Y-25665000D01*
X179576408Y-25621210D01*
X180266201Y-26311003D01*
X180289999Y-26340001D01*
X180318997Y-26363799D01*
X180405723Y-26434974D01*
X180527377Y-26500000D01*
X180537753Y-26505546D01*
X180681014Y-26549003D01*
X180792667Y-26560000D01*
X180792677Y-26560000D01*
X180830000Y-26563676D01*
X180867323Y-26560000D01*
X182162678Y-26560000D01*
X182200000Y-26563676D01*
X182237322Y-26560000D01*
X182237333Y-26560000D01*
X182348986Y-26549003D01*
X182492247Y-26505546D01*
X182624276Y-26434974D01*
X182740001Y-26340001D01*
X182763804Y-26310997D01*
X186894929Y-22179872D01*
X195565000Y-22179872D01*
X195565000Y-22620128D01*
X195650890Y-23051925D01*
X195819369Y-23458669D01*
X196063962Y-23824729D01*
X196375271Y-24136038D01*
X196741331Y-24380631D01*
X197148075Y-24549110D01*
X197579872Y-24635000D01*
X198020128Y-24635000D01*
X198451925Y-24549110D01*
X198858669Y-24380631D01*
X199224729Y-24136038D01*
X199536038Y-23824729D01*
X199780631Y-23458669D01*
X199949110Y-23051925D01*
X200035000Y-22620128D01*
X200035000Y-22179872D01*
X199949110Y-21748075D01*
X199780631Y-21341331D01*
X199536038Y-20975271D01*
X199224729Y-20663962D01*
X198858669Y-20419369D01*
X198451925Y-20250890D01*
X198020128Y-20165000D01*
X197579872Y-20165000D01*
X197148075Y-20250890D01*
X196741331Y-20419369D01*
X196375271Y-20663962D01*
X196063962Y-20975271D01*
X195819369Y-21341331D01*
X195650890Y-21748075D01*
X195565000Y-22179872D01*
X186894929Y-22179872D01*
X194984801Y-14090000D01*
X197011928Y-14090000D01*
X197024188Y-14214482D01*
X197060498Y-14334180D01*
X197119463Y-14444494D01*
X197198815Y-14541185D01*
X197295506Y-14620537D01*
X197405820Y-14679502D01*
X197525518Y-14715812D01*
X197650000Y-14728072D01*
X198914250Y-14725000D01*
X199073000Y-14566250D01*
X199073000Y-13067000D01*
X199327000Y-13067000D01*
X199327000Y-14566250D01*
X199485750Y-14725000D01*
X200750000Y-14728072D01*
X200874482Y-14715812D01*
X200994180Y-14679502D01*
X201104494Y-14620537D01*
X201201185Y-14541185D01*
X201280537Y-14444494D01*
X201339502Y-14334180D01*
X201375812Y-14214482D01*
X201388072Y-14090000D01*
X201385000Y-13225750D01*
X201226250Y-13067000D01*
X199327000Y-13067000D01*
X199073000Y-13067000D01*
X197173750Y-13067000D01*
X197015000Y-13225750D01*
X197011928Y-14090000D01*
X194984801Y-14090000D01*
X197012895Y-12061907D01*
X197015000Y-12654250D01*
X197173750Y-12813000D01*
X199073000Y-12813000D01*
X199073000Y-11313750D01*
X199327000Y-11313750D01*
X199327000Y-12813000D01*
X201226250Y-12813000D01*
X201385000Y-12654250D01*
X201388072Y-11790000D01*
X201375812Y-11665518D01*
X201339502Y-11545820D01*
X201280537Y-11435506D01*
X201201185Y-11338815D01*
X201104494Y-11259463D01*
X200994180Y-11200498D01*
X200874482Y-11164188D01*
X200750000Y-11151928D01*
X199485750Y-11155000D01*
X199327000Y-11313750D01*
X199073000Y-11313750D01*
X198914250Y-11155000D01*
X198688072Y-11154450D01*
X198688072Y-11120000D01*
X198678223Y-11020000D01*
X198688072Y-10920000D01*
X198688072Y-10620000D01*
X198678223Y-10520000D01*
X198688072Y-10420000D01*
X198688072Y-10120000D01*
X198678223Y-10020000D01*
X198688072Y-9920000D01*
X198688072Y-9620000D01*
X198678223Y-9520000D01*
X198688072Y-9420000D01*
X198688072Y-9120000D01*
X198678223Y-9020000D01*
X198688072Y-8920000D01*
X198688072Y-8620000D01*
X198678223Y-8520000D01*
X198688072Y-8420000D01*
X198688072Y-8120000D01*
X198678223Y-8020000D01*
X198688072Y-7920000D01*
X198688072Y-7620000D01*
X198678223Y-7520000D01*
X198688072Y-7420000D01*
X198688072Y-7120000D01*
X198678223Y-7020000D01*
X198688072Y-6920000D01*
X198688072Y-6620000D01*
X198678223Y-6520000D01*
X198688072Y-6420000D01*
X198688072Y-6120000D01*
X198678223Y-6020000D01*
X198688072Y-5920000D01*
X198688072Y-5620000D01*
X198678223Y-5520000D01*
X198688072Y-5420000D01*
X198688072Y-5120000D01*
X198678223Y-5020000D01*
X198688072Y-4920000D01*
X198688072Y-4620000D01*
X198678223Y-4520000D01*
X198688072Y-4420000D01*
X198688072Y-4120000D01*
X198678223Y-4020000D01*
X198688072Y-3920000D01*
X198688072Y-3620000D01*
X198678223Y-3520000D01*
X198688072Y-3420000D01*
X198688072Y-3120000D01*
X198678223Y-3020000D01*
X198688072Y-2920000D01*
X198688072Y-2620000D01*
X198678223Y-2520000D01*
X198688072Y-2420000D01*
X198688072Y-2120000D01*
X198678223Y-2020000D01*
X198688072Y-1920000D01*
X198688072Y-1620000D01*
X198678223Y-1520000D01*
X198688072Y-1420000D01*
X198688072Y-1120000D01*
X198678223Y-1020000D01*
X198688072Y-920000D01*
X198688072Y-620000D01*
X198678223Y-520000D01*
X198688072Y-420000D01*
X198688072Y-120000D01*
X198678223Y-20000D01*
X198688072Y80000D01*
X198688072Y380000D01*
X198678223Y480000D01*
X198688072Y580000D01*
X198688072Y880000D01*
X198678223Y980000D01*
X198688072Y1080000D01*
X198688072Y1380000D01*
X198678223Y1480000D01*
X198688072Y1580000D01*
X198688072Y1880000D01*
X198678223Y1980000D01*
X198688072Y2080000D01*
X198688072Y2380000D01*
X198678223Y2480000D01*
X198688072Y2580000D01*
X198688072Y2880000D01*
X198678223Y2980000D01*
X198688072Y3080000D01*
X198688072Y3380000D01*
X198678223Y3480000D01*
X198688072Y3580000D01*
X198688072Y3880000D01*
X198678223Y3980000D01*
X198688072Y4080000D01*
X198688072Y4380000D01*
X198678223Y4480000D01*
X198688072Y4580000D01*
X198688072Y4880000D01*
X198678223Y4980000D01*
X198688072Y5080000D01*
X198688072Y5380000D01*
X198678223Y5480000D01*
X198688072Y5580000D01*
X198688072Y5880000D01*
X198678223Y5980000D01*
X198688072Y6080000D01*
X198688072Y6114450D01*
X198914250Y6115000D01*
X199073000Y6273750D01*
X199073000Y7773000D01*
X199327000Y7773000D01*
X199327000Y6273750D01*
X199485750Y6115000D01*
X200750000Y6111928D01*
X200874482Y6124188D01*
X200994180Y6160498D01*
X201104494Y6219463D01*
X201201185Y6298815D01*
X201280537Y6395506D01*
X201339502Y6505820D01*
X201375812Y6625518D01*
X201388072Y6750000D01*
X201385000Y7614250D01*
X201226250Y7773000D01*
X199327000Y7773000D01*
X199073000Y7773000D01*
X197173750Y7773000D01*
X197015000Y7614250D01*
X197012881Y7018072D01*
X196950000Y7018072D01*
X196825518Y7005812D01*
X196773393Y6990000D01*
X196184802Y6990000D01*
X194124802Y9050000D01*
X197011928Y9050000D01*
X197015000Y8185750D01*
X197173750Y8027000D01*
X199073000Y8027000D01*
X199073000Y9526250D01*
X199327000Y9526250D01*
X199327000Y8027000D01*
X201226250Y8027000D01*
X201385000Y8185750D01*
X201388072Y9050000D01*
X201375812Y9174482D01*
X201339502Y9294180D01*
X201280537Y9404494D01*
X201201185Y9501185D01*
X201104494Y9580537D01*
X200994180Y9639502D01*
X200874482Y9675812D01*
X200750000Y9688072D01*
X199485750Y9685000D01*
X199327000Y9526250D01*
X199073000Y9526250D01*
X198914250Y9685000D01*
X197650000Y9688072D01*
X197525518Y9675812D01*
X197405820Y9639502D01*
X197295506Y9580537D01*
X197198815Y9501185D01*
X197119463Y9404494D01*
X197060498Y9294180D01*
X197024188Y9174482D01*
X197011928Y9050000D01*
X194124802Y9050000D01*
X184954674Y18220128D01*
X195765000Y18220128D01*
X195765000Y17779872D01*
X195850890Y17348075D01*
X196019369Y16941331D01*
X196263962Y16575271D01*
X196575271Y16263962D01*
X196941331Y16019369D01*
X197348075Y15850890D01*
X197779872Y15765000D01*
X198220128Y15765000D01*
X198651925Y15850890D01*
X199058669Y16019369D01*
X199424729Y16263962D01*
X199736038Y16575271D01*
X199980631Y16941331D01*
X200149110Y17348075D01*
X200235000Y17779872D01*
X200235000Y18220128D01*
X200149110Y18651925D01*
X199980631Y19058669D01*
X199736038Y19424729D01*
X199424729Y19736038D01*
X199058669Y19980631D01*
X198651925Y20149110D01*
X198220128Y20235000D01*
X197779872Y20235000D01*
X197348075Y20149110D01*
X196941331Y19980631D01*
X196575271Y19736038D01*
X196263962Y19424729D01*
X196019369Y19058669D01*
X195850890Y18651925D01*
X195765000Y18220128D01*
X184954674Y18220128D01*
X183663804Y19510997D01*
X183640001Y19540001D01*
X183524276Y19634974D01*
X183392247Y19705546D01*
X183248986Y19749003D01*
X183238072Y19750078D01*
X183238072Y19850000D01*
X183225812Y19974482D01*
X183189502Y20094180D01*
X183130537Y20204494D01*
X183051185Y20301185D01*
X182954494Y20380537D01*
X182844180Y20439502D01*
X182724482Y20475812D01*
X182600000Y20488072D01*
X180900000Y20488072D01*
X180775518Y20475812D01*
X180655820Y20439502D01*
X180545506Y20380537D01*
X180448815Y20301185D01*
X180369463Y20204494D01*
X180310498Y20094180D01*
X180288487Y20021620D01*
X180156632Y20153475D01*
X179913411Y20315990D01*
X179643158Y20427932D01*
X179356260Y20485000D01*
X179063740Y20485000D01*
X178776842Y20427932D01*
X178506589Y20315990D01*
X178263368Y20153475D01*
X178056525Y19946632D01*
X177894010Y19703411D01*
X177782068Y19433158D01*
X177725000Y19146260D01*
X177131905Y19146260D01*
X177127000Y21500265D01*
X177124560Y21524776D01*
X177117333Y21548601D01*
X177105597Y21570557D01*
X177089803Y21589803D01*
X177070557Y21605597D01*
X177048601Y21617333D01*
X177024776Y21624560D01*
X177000000Y21627000D01*
X175250000Y21627000D01*
X175225224Y21624560D01*
X175201399Y21617333D01*
X175179443Y21605597D01*
X175160197Y21589803D01*
X175144403Y21570557D01*
X175132667Y21548601D01*
X175125440Y21524776D01*
X175123000Y21500000D01*
X152335149Y21500000D01*
X152991248Y21727836D01*
X153735790Y21835790D01*
X153908063Y21840000D01*
X197968591Y21840000D01*
X198725555Y21767779D01*
%TA.AperFunction,Conductor*%
D18*
G36*
X198725555Y21767779D02*
G01*
X199424940Y21562602D01*
X200072904Y21228880D01*
X200646074Y20778647D01*
X201123762Y20228161D01*
X201488742Y19597270D01*
X201727836Y18908752D01*
X201835790Y18164210D01*
X201840000Y17991937D01*
X201840001Y-22968581D01*
X201767779Y-23725555D01*
X201562602Y-24424940D01*
X201228878Y-25072906D01*
X200778650Y-25646072D01*
X200228159Y-26123763D01*
X199597270Y-26488741D01*
X198908752Y-26727836D01*
X198164210Y-26835790D01*
X197991937Y-26840000D01*
X153931409Y-26840000D01*
X153174445Y-26767779D01*
X152475060Y-26562602D01*
X151827094Y-26228878D01*
X151253928Y-25778650D01*
X150776237Y-25228159D01*
X150411259Y-24597270D01*
X150172164Y-23908752D01*
X150064210Y-23164210D01*
X150060000Y-22991937D01*
X150060000Y-22279872D01*
X151865000Y-22279872D01*
X151865000Y-22720128D01*
X151950890Y-23151925D01*
X152119369Y-23558669D01*
X152363962Y-23924729D01*
X152675271Y-24236038D01*
X153041331Y-24480631D01*
X153448075Y-24649110D01*
X153879872Y-24735000D01*
X154320128Y-24735000D01*
X154751925Y-24649110D01*
X155158669Y-24480631D01*
X155524729Y-24236038D01*
X155836038Y-23924729D01*
X156080631Y-23558669D01*
X156249110Y-23151925D01*
X156335000Y-22720128D01*
X156335000Y-22279872D01*
X156249110Y-21848075D01*
X156080631Y-21441331D01*
X155836038Y-21075271D01*
X155524729Y-20763962D01*
X155158669Y-20519369D01*
X154751925Y-20350890D01*
X154320128Y-20265000D01*
X153879872Y-20265000D01*
X153448075Y-20350890D01*
X153041331Y-20519369D01*
X152675271Y-20763962D01*
X152363962Y-21075271D01*
X152119369Y-21441331D01*
X151950890Y-21848075D01*
X151865000Y-22279872D01*
X150060000Y-22279872D01*
X150060000Y-12538387D01*
X150851218Y-12538387D01*
X150905093Y-12767468D01*
X151135684Y-12873763D01*
X151382581Y-12933028D01*
X151636296Y-12942988D01*
X151887079Y-12903259D01*
X152125293Y-12815368D01*
X152214907Y-12767468D01*
X152268782Y-12538387D01*
X152881218Y-12538387D01*
X152935093Y-12767468D01*
X153165684Y-12873763D01*
X153412581Y-12933028D01*
X153666296Y-12942988D01*
X153917079Y-12903259D01*
X154155293Y-12815368D01*
X154244907Y-12767468D01*
X154298782Y-12538387D01*
X156881218Y-12538387D01*
X156935093Y-12767468D01*
X157165684Y-12873763D01*
X157412581Y-12933028D01*
X157666296Y-12942988D01*
X157917079Y-12903259D01*
X158155293Y-12815368D01*
X158244907Y-12767468D01*
X158298782Y-12538387D01*
X161121218Y-12538387D01*
X161175093Y-12767468D01*
X161405684Y-12873763D01*
X161652581Y-12933028D01*
X161906296Y-12942988D01*
X162157079Y-12903259D01*
X162395293Y-12815368D01*
X162484907Y-12767468D01*
X162538782Y-12538387D01*
X161830000Y-11829605D01*
X161121218Y-12538387D01*
X158298782Y-12538387D01*
X157590000Y-11829605D01*
X156881218Y-12538387D01*
X154298782Y-12538387D01*
X153590000Y-11829605D01*
X152881218Y-12538387D01*
X152268782Y-12538387D01*
X151560000Y-11829605D01*
X150851218Y-12538387D01*
X150060000Y-12538387D01*
X150060000Y-11726296D01*
X150267012Y-11726296D01*
X150306741Y-11977079D01*
X150394632Y-12215293D01*
X150442532Y-12304907D01*
X150671613Y-12358782D01*
X151380395Y-11650000D01*
X151739605Y-11650000D01*
X152448387Y-12358782D01*
X152575000Y-12329005D01*
X152701613Y-12358782D01*
X153410395Y-11650000D01*
X152701613Y-10941218D01*
X152575000Y-10970995D01*
X152448387Y-10941218D01*
X151739605Y-11650000D01*
X151380395Y-11650000D01*
X150671613Y-10941218D01*
X150442532Y-10995093D01*
X150336237Y-11225684D01*
X150276972Y-11472581D01*
X150267012Y-11726296D01*
X150060000Y-11726296D01*
X150060000Y-10761613D01*
X150851218Y-10761613D01*
X151560000Y-11470395D01*
X152268782Y-10761613D01*
X152214907Y-10532532D01*
X151984316Y-10426237D01*
X151737419Y-10366972D01*
X151483704Y-10357012D01*
X151232921Y-10396741D01*
X150994707Y-10484632D01*
X150905093Y-10532532D01*
X150851218Y-10761613D01*
X150060000Y-10761613D01*
X150060000Y5261613D01*
X150851218Y5261613D01*
X150905093Y5032532D01*
X151135684Y4926237D01*
X151382581Y4866972D01*
X151636296Y4857012D01*
X151665000Y4861559D01*
X151665000Y4748061D01*
X151704774Y4548102D01*
X151782795Y4359744D01*
X151896063Y4190226D01*
X152040226Y4046063D01*
X152209744Y3932795D01*
X152398102Y3854774D01*
X152598061Y3815000D01*
X152660198Y3815000D01*
X153036201Y3438997D01*
X153059999Y3409999D01*
X153175724Y3315026D01*
X153307753Y3244454D01*
X153451014Y3200997D01*
X153562667Y3190000D01*
X153562676Y3190000D01*
X153599999Y3186324D01*
X153637322Y3190000D01*
X154064776Y3190000D01*
X154009744Y3167205D01*
X153840226Y3053937D01*
X153696063Y2909774D01*
X153582795Y2740256D01*
X153504774Y2551898D01*
X153465000Y2351939D01*
X153465000Y2148061D01*
X153504774Y1948102D01*
X153582795Y1759744D01*
X153696063Y1590226D01*
X153836289Y1450000D01*
X153696063Y1309774D01*
X153582795Y1140256D01*
X153504774Y951898D01*
X153465000Y751939D01*
X153465000Y548061D01*
X153504774Y348102D01*
X153582795Y159744D01*
X153696063Y-9774D01*
X153836289Y-150000D01*
X153696063Y-290226D01*
X153582795Y-459744D01*
X153504774Y-648102D01*
X153465000Y-848061D01*
X153465000Y-1051939D01*
X153504774Y-1251898D01*
X153582795Y-1440256D01*
X153696063Y-1609774D01*
X153836289Y-1750000D01*
X153696063Y-1890226D01*
X153582795Y-2059744D01*
X153504774Y-2248102D01*
X153465000Y-2448061D01*
X153465000Y-2651939D01*
X153504774Y-2851898D01*
X153582795Y-3040256D01*
X153696063Y-3209774D01*
X153836289Y-3350000D01*
X153696063Y-3490226D01*
X153582795Y-3659744D01*
X153504774Y-3848102D01*
X153465000Y-4048061D01*
X153465000Y-4251939D01*
X153504774Y-4451898D01*
X153582795Y-4640256D01*
X153696063Y-4809774D01*
X153815479Y-4929190D01*
X153790226Y-4946063D01*
X153646063Y-5090226D01*
X153532795Y-5259744D01*
X153454774Y-5448102D01*
X153415000Y-5648061D01*
X153415000Y-5851939D01*
X153454774Y-6051898D01*
X153532795Y-6240256D01*
X153646063Y-6409774D01*
X153790226Y-6553937D01*
X153815479Y-6570810D01*
X153696063Y-6690226D01*
X153582795Y-6859744D01*
X153504774Y-7048102D01*
X153465000Y-7248061D01*
X153465000Y-7451939D01*
X153504774Y-7651898D01*
X153582795Y-7840256D01*
X153696063Y-8009774D01*
X153840226Y-8153937D01*
X153865479Y-8170810D01*
X153746063Y-8290226D01*
X153632795Y-8459744D01*
X153554774Y-8648102D01*
X153515000Y-8848061D01*
X153515000Y-9051939D01*
X153554774Y-9251898D01*
X153632795Y-9440256D01*
X153746063Y-9609774D01*
X153890226Y-9753937D01*
X154059744Y-9867205D01*
X154248102Y-9945226D01*
X154410374Y-9977504D01*
X154340475Y-10082115D01*
X154234186Y-10338718D01*
X154199772Y-10511726D01*
X154014316Y-10426237D01*
X153767419Y-10366972D01*
X153513704Y-10357012D01*
X153262921Y-10396741D01*
X153024707Y-10484632D01*
X152935093Y-10532532D01*
X152881218Y-10761613D01*
X153590000Y-11470395D01*
X153604143Y-11456253D01*
X153783748Y-11635858D01*
X153769605Y-11650000D01*
X154478387Y-12358782D01*
X154707468Y-12304907D01*
X154813763Y-12074316D01*
X154844211Y-11947471D01*
X154922115Y-11999525D01*
X155178718Y-12105814D01*
X155451127Y-12160000D01*
X155728873Y-12160000D01*
X156001282Y-12105814D01*
X156257885Y-11999525D01*
X156332408Y-11949730D01*
X156336741Y-11977079D01*
X156424632Y-12215293D01*
X156472532Y-12304907D01*
X156701613Y-12358782D01*
X157410395Y-11650000D01*
X157769605Y-11650000D01*
X158478387Y-12358782D01*
X158707468Y-12304907D01*
X158813763Y-12074316D01*
X158873028Y-11827419D01*
X158876997Y-11726296D01*
X160537012Y-11726296D01*
X160576741Y-11977079D01*
X160664632Y-12215293D01*
X160712532Y-12304907D01*
X160941613Y-12358782D01*
X161650395Y-11650000D01*
X160941613Y-10941218D01*
X160712532Y-10995093D01*
X160606237Y-11225684D01*
X160546972Y-11472581D01*
X160537012Y-11726296D01*
X158876997Y-11726296D01*
X158882988Y-11573704D01*
X158843259Y-11322921D01*
X158755368Y-11084707D01*
X158707468Y-10995093D01*
X158478387Y-10941218D01*
X157769605Y-11650000D01*
X157410395Y-11650000D01*
X157396253Y-11635858D01*
X157575858Y-11456253D01*
X157590000Y-11470395D01*
X158298782Y-10761613D01*
X158244907Y-10532532D01*
X158014316Y-10426237D01*
X157767419Y-10366972D01*
X157513704Y-10357012D01*
X157262921Y-10396741D01*
X157024707Y-10484632D01*
X156979631Y-10508726D01*
X156945814Y-10338718D01*
X156839525Y-10082115D01*
X156685218Y-9851178D01*
X156544040Y-9710000D01*
X158649442Y-9710000D01*
X158582795Y-9809744D01*
X158504774Y-9998102D01*
X158465000Y-10198061D01*
X158465000Y-10401939D01*
X158504774Y-10601898D01*
X158582795Y-10790256D01*
X158696063Y-10959774D01*
X158840226Y-11103937D01*
X159009744Y-11217205D01*
X159198102Y-11295226D01*
X159398061Y-11335000D01*
X159601939Y-11335000D01*
X159801898Y-11295226D01*
X159990256Y-11217205D01*
X160159774Y-11103937D01*
X160303937Y-10959774D01*
X160417205Y-10790256D01*
X160495226Y-10601898D01*
X160503560Y-10560000D01*
X161168633Y-10560000D01*
X161121218Y-10761613D01*
X161830000Y-11470395D01*
X161844143Y-11456253D01*
X162023748Y-11635858D01*
X162009605Y-11650000D01*
X162718387Y-12358782D01*
X162947468Y-12304907D01*
X163053763Y-12074316D01*
X163091655Y-11916457D01*
X163640000Y-12464802D01*
X163640001Y-20312668D01*
X163636324Y-20350000D01*
X163650998Y-20498985D01*
X163694454Y-20642246D01*
X163765026Y-20774276D01*
X163818965Y-20840000D01*
X163860000Y-20890001D01*
X163888998Y-20913799D01*
X169036201Y-26061003D01*
X169059999Y-26090001D01*
X169088997Y-26113799D01*
X169175724Y-26184974D01*
X169307753Y-26255546D01*
X169451014Y-26299003D01*
X169600000Y-26313677D01*
X169637333Y-26310000D01*
X171592678Y-26310000D01*
X171630000Y-26313676D01*
X171667322Y-26310000D01*
X171667333Y-26310000D01*
X171778986Y-26299003D01*
X171922247Y-26255546D01*
X172054276Y-26184974D01*
X172170001Y-26090001D01*
X172193804Y-26060997D01*
X172633592Y-25621209D01*
X172853740Y-25665000D01*
X173146260Y-25665000D01*
X173433158Y-25607932D01*
X173703411Y-25495990D01*
X173946632Y-25333475D01*
X174153475Y-25126632D01*
X174315990Y-24883411D01*
X174427932Y-24613158D01*
X174485000Y-24326260D01*
X174485000Y-24033740D01*
X174427932Y-23746842D01*
X174315990Y-23476589D01*
X174153475Y-23233368D01*
X173946632Y-23026525D01*
X173772240Y-22910000D01*
X173946632Y-22793475D01*
X174153475Y-22586632D01*
X174315990Y-22343411D01*
X174427932Y-22073158D01*
X174485000Y-21786260D01*
X174485000Y-21493740D01*
X174427932Y-21206842D01*
X174315990Y-20936589D01*
X174153475Y-20693368D01*
X173946632Y-20486525D01*
X173772240Y-20370000D01*
X173946632Y-20253475D01*
X174153475Y-20046632D01*
X174315990Y-19803411D01*
X174427932Y-19533158D01*
X174485000Y-19246260D01*
X174485000Y-18953740D01*
X174427932Y-18666842D01*
X174315990Y-18396589D01*
X174153475Y-18153368D01*
X173946632Y-17946525D01*
X173772240Y-17830000D01*
X173946632Y-17713475D01*
X174153475Y-17506632D01*
X174315990Y-17263411D01*
X174427932Y-16993158D01*
X174485000Y-16706260D01*
X174485000Y-16413740D01*
X174427932Y-16126842D01*
X174315990Y-15856589D01*
X174153475Y-15613368D01*
X173946632Y-15406525D01*
X173772240Y-15290000D01*
X173946632Y-15173475D01*
X174153475Y-14966632D01*
X174315990Y-14723411D01*
X174427932Y-14453158D01*
X174485000Y-14166260D01*
X174485000Y-13873740D01*
X174427932Y-13586842D01*
X174315990Y-13316589D01*
X174153475Y-13073368D01*
X173946632Y-12866525D01*
X173772240Y-12750000D01*
X173946632Y-12633475D01*
X174153475Y-12426632D01*
X174315990Y-12183411D01*
X174427932Y-11913158D01*
X174485000Y-11626260D01*
X174485000Y-11333740D01*
X174427932Y-11046842D01*
X174315990Y-10776589D01*
X174153475Y-10533368D01*
X173946632Y-10326525D01*
X173772240Y-10210000D01*
X173946632Y-10093475D01*
X174153475Y-9886632D01*
X174315990Y-9643411D01*
X174427932Y-9373158D01*
X174485000Y-9086260D01*
X174485000Y-8793740D01*
X174427932Y-8506842D01*
X174315990Y-8236589D01*
X174153475Y-7993368D01*
X173946632Y-7786525D01*
X173772240Y-7670000D01*
X173946632Y-7553475D01*
X174153475Y-7346632D01*
X174315990Y-7103411D01*
X174427932Y-6833158D01*
X174485000Y-6546260D01*
X174485000Y-6253740D01*
X174427932Y-5966842D01*
X174315990Y-5696589D01*
X174153475Y-5453368D01*
X173946632Y-5246525D01*
X173772240Y-5130000D01*
X173946632Y-5013475D01*
X174153475Y-4806632D01*
X174315990Y-4563411D01*
X174427932Y-4293158D01*
X174485000Y-4006260D01*
X174485000Y-3713740D01*
X174427932Y-3426842D01*
X174315990Y-3156589D01*
X174153475Y-2913368D01*
X173946632Y-2706525D01*
X173772240Y-2590000D01*
X173946632Y-2473475D01*
X174153475Y-2266632D01*
X174315990Y-2023411D01*
X174427932Y-1753158D01*
X174485000Y-1466260D01*
X174485000Y-1173740D01*
X174427932Y-886842D01*
X174315990Y-616589D01*
X174153475Y-373368D01*
X173946632Y-166525D01*
X173772240Y-50000D01*
X173946632Y66525D01*
X174153475Y273368D01*
X174315990Y516589D01*
X174427932Y786842D01*
X174485000Y1073740D01*
X174485000Y1366260D01*
X174427932Y1653158D01*
X174315990Y1923411D01*
X174153475Y2166632D01*
X173946632Y2373475D01*
X173772240Y2490000D01*
X173946632Y2606525D01*
X174153475Y2813368D01*
X174315990Y3056589D01*
X174427932Y3326842D01*
X174485000Y3613740D01*
X174485000Y3906260D01*
X174427932Y4193158D01*
X174315990Y4463411D01*
X174153475Y4706632D01*
X173946632Y4913475D01*
X173772240Y5030000D01*
X173946632Y5146525D01*
X174153475Y5353368D01*
X174315990Y5596589D01*
X174427932Y5866842D01*
X174485000Y6153740D01*
X174485000Y6446260D01*
X174427932Y6733158D01*
X174315990Y7003411D01*
X174153475Y7246632D01*
X173946632Y7453475D01*
X173772240Y7570000D01*
X173946632Y7686525D01*
X174153475Y7893368D01*
X174315990Y8136589D01*
X174427932Y8406842D01*
X174485000Y8693740D01*
X174485000Y8986260D01*
X174427932Y9273158D01*
X174315990Y9543411D01*
X174153475Y9786632D01*
X173946632Y9993475D01*
X173772240Y10110000D01*
X173946632Y10226525D01*
X174153475Y10433368D01*
X174315990Y10676589D01*
X174427932Y10946842D01*
X174485000Y11233740D01*
X174485000Y11526260D01*
X174427932Y11813158D01*
X174315990Y12083411D01*
X174153475Y12326632D01*
X173946632Y12533475D01*
X173772240Y12650000D01*
X173946632Y12766525D01*
X174153475Y12973368D01*
X174315990Y13216589D01*
X174427932Y13486842D01*
X174485000Y13773740D01*
X174485000Y14066260D01*
X174427932Y14353158D01*
X174315990Y14623411D01*
X174153475Y14866632D01*
X173946632Y15073475D01*
X173772240Y15190000D01*
X173946632Y15306525D01*
X174153475Y15513368D01*
X174315990Y15756589D01*
X174427932Y16026842D01*
X174485000Y16313740D01*
X174485000Y16606260D01*
X174427932Y16893158D01*
X174315990Y17163411D01*
X174153475Y17406632D01*
X174021620Y17538487D01*
X174094180Y17560498D01*
X174204494Y17619463D01*
X174301185Y17698815D01*
X174380537Y17795506D01*
X174439502Y17905820D01*
X174475812Y18025518D01*
X174488072Y18150000D01*
X174488072Y19850000D01*
X174475812Y19974482D01*
X174439502Y20094180D01*
X174380537Y20204494D01*
X174301185Y20301185D01*
X174204494Y20380537D01*
X174094180Y20439502D01*
X173974482Y20475812D01*
X173850000Y20488072D01*
X172150000Y20488072D01*
X172025518Y20475812D01*
X171905820Y20439502D01*
X171795506Y20380537D01*
X171698815Y20301185D01*
X171619463Y20204494D01*
X171560498Y20094180D01*
X171538487Y20021620D01*
X171406632Y20153475D01*
X171163411Y20315990D01*
X170893158Y20427932D01*
X170606260Y20485000D01*
X170313740Y20485000D01*
X170026842Y20427932D01*
X169756589Y20315990D01*
X169513368Y20153475D01*
X169306525Y19946632D01*
X169144010Y19703411D01*
X169032068Y19433158D01*
X168975000Y19146260D01*
X168975000Y18853740D01*
X169032068Y18566842D01*
X169144010Y18296589D01*
X169279704Y18093508D01*
X163639003Y12452806D01*
X163609999Y12429003D01*
X163554871Y12361828D01*
X163515026Y12313278D01*
X163444455Y12181249D01*
X163444454Y12181248D01*
X163400997Y12037987D01*
X163390000Y11926334D01*
X163390000Y11926324D01*
X163386324Y11889002D01*
X163390000Y11851679D01*
X163390001Y5464803D01*
X162635199Y4710000D01*
X156892497Y4710000D01*
X156945814Y4838718D01*
X156980228Y5011726D01*
X157165684Y4926237D01*
X157412581Y4866972D01*
X157666296Y4857012D01*
X157917079Y4896741D01*
X158155293Y4984632D01*
X158244907Y5032532D01*
X158298782Y5261613D01*
X160121218Y5261613D01*
X160175093Y5032532D01*
X160405684Y4926237D01*
X160652581Y4866972D01*
X160906296Y4857012D01*
X161157079Y4896741D01*
X161395293Y4984632D01*
X161484907Y5032532D01*
X161538782Y5261613D01*
X160830000Y5970395D01*
X160121218Y5261613D01*
X158298782Y5261613D01*
X157590000Y5970395D01*
X157575858Y5956253D01*
X157396253Y6135858D01*
X157410395Y6150000D01*
X157769605Y6150000D01*
X158478387Y5441218D01*
X158707468Y5495093D01*
X158813763Y5725684D01*
X158873028Y5972581D01*
X158876997Y6073704D01*
X159537012Y6073704D01*
X159576741Y5822921D01*
X159664632Y5584707D01*
X159712532Y5495093D01*
X159941613Y5441218D01*
X160650395Y6150000D01*
X161009605Y6150000D01*
X161718387Y5441218D01*
X161947468Y5495093D01*
X162053763Y5725684D01*
X162113028Y5972581D01*
X162122988Y6226296D01*
X162083259Y6477079D01*
X161995368Y6715293D01*
X161947468Y6804907D01*
X161718387Y6858782D01*
X161009605Y6150000D01*
X160650395Y6150000D01*
X159941613Y6858782D01*
X159712532Y6804907D01*
X159606237Y6574316D01*
X159546972Y6327419D01*
X159537012Y6073704D01*
X158876997Y6073704D01*
X158882988Y6226296D01*
X158843259Y6477079D01*
X158755368Y6715293D01*
X158707468Y6804907D01*
X158478387Y6858782D01*
X157769605Y6150000D01*
X157410395Y6150000D01*
X156701613Y6858782D01*
X156472532Y6804907D01*
X156366237Y6574316D01*
X156335789Y6447471D01*
X156257885Y6499525D01*
X156001282Y6605814D01*
X155728873Y6660000D01*
X155451127Y6660000D01*
X155178718Y6605814D01*
X154922115Y6499525D01*
X154847592Y6449730D01*
X154843259Y6477079D01*
X154755368Y6715293D01*
X154707468Y6804907D01*
X154478387Y6858782D01*
X153769605Y6150000D01*
X153783748Y6135858D01*
X153604143Y5956253D01*
X153590000Y5970395D01*
X153575858Y5956253D01*
X153396253Y6135858D01*
X153410395Y6150000D01*
X152701613Y6858782D01*
X152575000Y6829005D01*
X152448387Y6858782D01*
X151739605Y6150000D01*
X151753748Y6135858D01*
X151574143Y5956253D01*
X151560000Y5970395D01*
X150851218Y5261613D01*
X150060000Y5261613D01*
X150060000Y6073704D01*
X150267012Y6073704D01*
X150306741Y5822921D01*
X150394632Y5584707D01*
X150442532Y5495093D01*
X150671613Y5441218D01*
X151380395Y6150000D01*
X150671613Y6858782D01*
X150442532Y6804907D01*
X150336237Y6574316D01*
X150276972Y6327419D01*
X150267012Y6073704D01*
X150060000Y6073704D01*
X150060000Y7038387D01*
X150851218Y7038387D01*
X151560000Y6329605D01*
X152268782Y7038387D01*
X152881218Y7038387D01*
X153590000Y6329605D01*
X154298782Y7038387D01*
X156881218Y7038387D01*
X157590000Y6329605D01*
X158298782Y7038387D01*
X160121218Y7038387D01*
X160830000Y6329605D01*
X161538782Y7038387D01*
X161484907Y7267468D01*
X161254316Y7373763D01*
X161007419Y7433028D01*
X160753704Y7442988D01*
X160502921Y7403259D01*
X160264707Y7315368D01*
X160175093Y7267468D01*
X160121218Y7038387D01*
X158298782Y7038387D01*
X158244907Y7267468D01*
X158014316Y7373763D01*
X157767419Y7433028D01*
X157513704Y7442988D01*
X157262921Y7403259D01*
X157024707Y7315368D01*
X156935093Y7267468D01*
X156881218Y7038387D01*
X154298782Y7038387D01*
X154244907Y7267468D01*
X154014316Y7373763D01*
X153767419Y7433028D01*
X153513704Y7442988D01*
X153262921Y7403259D01*
X153024707Y7315368D01*
X152935093Y7267468D01*
X152881218Y7038387D01*
X152268782Y7038387D01*
X152214907Y7267468D01*
X151984316Y7373763D01*
X151737419Y7433028D01*
X151483704Y7442988D01*
X151232921Y7403259D01*
X150994707Y7315368D01*
X150905093Y7267468D01*
X150851218Y7038387D01*
X150060000Y7038387D01*
X150060000Y17968591D01*
X150093539Y18320128D01*
X151965000Y18320128D01*
X151965000Y17879872D01*
X152050890Y17448075D01*
X152219369Y17041331D01*
X152463962Y16675271D01*
X152775271Y16363962D01*
X153141331Y16119369D01*
X153548075Y15950890D01*
X153979872Y15865000D01*
X154420128Y15865000D01*
X154851925Y15950890D01*
X155258669Y16119369D01*
X155624729Y16363962D01*
X155936038Y16675271D01*
X156180631Y17041331D01*
X156349110Y17448075D01*
X156435000Y17879872D01*
X156435000Y18320128D01*
X156349110Y18751925D01*
X156180631Y19158669D01*
X155936038Y19524729D01*
X155624729Y19836038D01*
X155258669Y20080631D01*
X154851925Y20249110D01*
X154420128Y20335000D01*
X153979872Y20335000D01*
X153548075Y20249110D01*
X153141331Y20080631D01*
X152775271Y19836038D01*
X152463962Y19524729D01*
X152219369Y19158669D01*
X152050890Y18751925D01*
X151965000Y18320128D01*
X150093539Y18320128D01*
X150132221Y18725555D01*
X150337398Y19424940D01*
X150671120Y20072904D01*
X151121353Y20646074D01*
X151671839Y21123762D01*
X152302730Y21488742D01*
X152335149Y21500000D01*
X175123000Y21500000D01*
X175123000Y-26500000D01*
X175125440Y-26524776D01*
X175132667Y-26548601D01*
X175144403Y-26570557D01*
X175160197Y-26589803D01*
X175179443Y-26605597D01*
X175201399Y-26617333D01*
X175225224Y-26624560D01*
X175250000Y-26627000D01*
X177100000Y-26627000D01*
X177125036Y-26624508D01*
X177148845Y-26617231D01*
X177170777Y-26605449D01*
X177189989Y-26589615D01*
X177205743Y-26570337D01*
X177217434Y-26548356D01*
X177224611Y-26524517D01*
X177227000Y-26499735D01*
X177131905Y19146260D01*
X177725000Y19146260D01*
X177725000Y18853740D01*
X177782068Y18566842D01*
X177894010Y18296589D01*
X178056525Y18053368D01*
X178263368Y17846525D01*
X178437760Y17730000D01*
X178263368Y17613475D01*
X178056525Y17406632D01*
X177894010Y17163411D01*
X177782068Y16893158D01*
X177725000Y16606260D01*
X177725000Y16313740D01*
X177782068Y16026842D01*
X177894010Y15756589D01*
X178056525Y15513368D01*
X178263368Y15306525D01*
X178437760Y15190000D01*
X178263368Y15073475D01*
X178056525Y14866632D01*
X177894010Y14623411D01*
X177782068Y14353158D01*
X177725000Y14066260D01*
X177725000Y13773740D01*
X177782068Y13486842D01*
X177894010Y13216589D01*
X178056525Y12973368D01*
X178263368Y12766525D01*
X178437760Y12650000D01*
X178263368Y12533475D01*
X178056525Y12326632D01*
X177894010Y12083411D01*
X177782068Y11813158D01*
X177725000Y11526260D01*
X177725000Y11233740D01*
X177782068Y10946842D01*
X177894010Y10676589D01*
X178056525Y10433368D01*
X178263368Y10226525D01*
X178437760Y10110000D01*
X178263368Y9993475D01*
X178056525Y9786632D01*
X177894010Y9543411D01*
X177782068Y9273158D01*
X177725000Y8986260D01*
X177725000Y8693740D01*
X177782068Y8406842D01*
X177894010Y8136589D01*
X178056525Y7893368D01*
X178263368Y7686525D01*
X178437760Y7570000D01*
X178263368Y7453475D01*
X178056525Y7246632D01*
X177894010Y7003411D01*
X177782068Y6733158D01*
X177725000Y6446260D01*
X177725000Y6153740D01*
X177782068Y5866842D01*
X177894010Y5596589D01*
X178056525Y5353368D01*
X178263368Y5146525D01*
X178437760Y5030000D01*
X178263368Y4913475D01*
X178056525Y4706632D01*
X177894010Y4463411D01*
X177782068Y4193158D01*
X177725000Y3906260D01*
X177725000Y3613740D01*
X177782068Y3326842D01*
X177894010Y3056589D01*
X178056525Y2813368D01*
X178263368Y2606525D01*
X178437760Y2490000D01*
X178263368Y2373475D01*
X178056525Y2166632D01*
X177894010Y1923411D01*
X177782068Y1653158D01*
X177725000Y1366260D01*
X177725000Y1073740D01*
X177782068Y786842D01*
X177894010Y516589D01*
X178056525Y273368D01*
X178263368Y66525D01*
X178437760Y-50000D01*
X178263368Y-166525D01*
X178056525Y-373368D01*
X177894010Y-616589D01*
X177782068Y-886842D01*
X177725000Y-1173740D01*
X177725000Y-1466260D01*
X177782068Y-1753158D01*
X177894010Y-2023411D01*
X178056525Y-2266632D01*
X178263368Y-2473475D01*
X178437760Y-2590000D01*
X178263368Y-2706525D01*
X178056525Y-2913368D01*
X177894010Y-3156589D01*
X177782068Y-3426842D01*
X177725000Y-3713740D01*
X177725000Y-4006260D01*
X177782068Y-4293158D01*
X177894010Y-4563411D01*
X178056525Y-4806632D01*
X178263368Y-5013475D01*
X178437760Y-5130000D01*
X178263368Y-5246525D01*
X178056525Y-5453368D01*
X177894010Y-5696589D01*
X177782068Y-5966842D01*
X177725000Y-6253740D01*
X177725000Y-6546260D01*
X177782068Y-6833158D01*
X177894010Y-7103411D01*
X178056525Y-7346632D01*
X178263368Y-7553475D01*
X178437760Y-7670000D01*
X178263368Y-7786525D01*
X178056525Y-7993368D01*
X177894010Y-8236589D01*
X177782068Y-8506842D01*
X177725000Y-8793740D01*
X177725000Y-9086260D01*
X177782068Y-9373158D01*
X177894010Y-9643411D01*
X178056525Y-9886632D01*
X178263368Y-10093475D01*
X178437760Y-10210000D01*
X178263368Y-10326525D01*
X178056525Y-10533368D01*
X177894010Y-10776589D01*
X177782068Y-11046842D01*
X177725000Y-11333740D01*
X177725000Y-11626260D01*
X177782068Y-11913158D01*
X177894010Y-12183411D01*
X178056525Y-12426632D01*
X178263368Y-12633475D01*
X178437760Y-12750000D01*
X178263368Y-12866525D01*
X178056525Y-13073368D01*
X177894010Y-13316589D01*
X177782068Y-13586842D01*
X177725000Y-13873740D01*
X177725000Y-14166260D01*
X177782068Y-14453158D01*
X177894010Y-14723411D01*
X178056525Y-14966632D01*
X178263368Y-15173475D01*
X178437760Y-15290000D01*
X178263368Y-15406525D01*
X178056525Y-15613368D01*
X177894010Y-15856589D01*
X177782068Y-16126842D01*
X177725000Y-16413740D01*
X177725000Y-16706260D01*
X177782068Y-16993158D01*
X177894010Y-17263411D01*
X178056525Y-17506632D01*
X178263368Y-17713475D01*
X178437760Y-17830000D01*
X178263368Y-17946525D01*
X178056525Y-18153368D01*
X177894010Y-18396589D01*
X177782068Y-18666842D01*
X177725000Y-18953740D01*
X177725000Y-19246260D01*
X177782068Y-19533158D01*
X177894010Y-19803411D01*
X178056525Y-20046632D01*
X178263368Y-20253475D01*
X178437760Y-20370000D01*
X178263368Y-20486525D01*
X178056525Y-20693368D01*
X177894010Y-20936589D01*
X177782068Y-21206842D01*
X177725000Y-21493740D01*
X177725000Y-21786260D01*
X177782068Y-22073158D01*
X177894010Y-22343411D01*
X178056525Y-22586632D01*
X178263368Y-22793475D01*
X178437760Y-22910000D01*
X178263368Y-23026525D01*
X178056525Y-23233368D01*
X177894010Y-23476589D01*
X177782068Y-23746842D01*
X177725000Y-24033740D01*
X177725000Y-24326260D01*
X177782068Y-24613158D01*
X177894010Y-24883411D01*
X178056525Y-25126632D01*
X178263368Y-25333475D01*
X178506589Y-25495990D01*
X178776842Y-25607932D01*
X179063740Y-25665000D01*
X179356260Y-25665000D01*
X179576408Y-25621210D01*
X180266201Y-26311003D01*
X180289999Y-26340001D01*
X180318997Y-26363799D01*
X180405723Y-26434974D01*
X180527377Y-26500000D01*
X180537753Y-26505546D01*
X180681014Y-26549003D01*
X180792667Y-26560000D01*
X180792677Y-26560000D01*
X180830000Y-26563676D01*
X180867323Y-26560000D01*
X182162678Y-26560000D01*
X182200000Y-26563676D01*
X182237322Y-26560000D01*
X182237333Y-26560000D01*
X182348986Y-26549003D01*
X182492247Y-26505546D01*
X182624276Y-26434974D01*
X182740001Y-26340001D01*
X182763804Y-26310997D01*
X186894929Y-22179872D01*
X195565000Y-22179872D01*
X195565000Y-22620128D01*
X195650890Y-23051925D01*
X195819369Y-23458669D01*
X196063962Y-23824729D01*
X196375271Y-24136038D01*
X196741331Y-24380631D01*
X197148075Y-24549110D01*
X197579872Y-24635000D01*
X198020128Y-24635000D01*
X198451925Y-24549110D01*
X198858669Y-24380631D01*
X199224729Y-24136038D01*
X199536038Y-23824729D01*
X199780631Y-23458669D01*
X199949110Y-23051925D01*
X200035000Y-22620128D01*
X200035000Y-22179872D01*
X199949110Y-21748075D01*
X199780631Y-21341331D01*
X199536038Y-20975271D01*
X199224729Y-20663962D01*
X198858669Y-20419369D01*
X198451925Y-20250890D01*
X198020128Y-20165000D01*
X197579872Y-20165000D01*
X197148075Y-20250890D01*
X196741331Y-20419369D01*
X196375271Y-20663962D01*
X196063962Y-20975271D01*
X195819369Y-21341331D01*
X195650890Y-21748075D01*
X195565000Y-22179872D01*
X186894929Y-22179872D01*
X194984801Y-14090000D01*
X197011928Y-14090000D01*
X197024188Y-14214482D01*
X197060498Y-14334180D01*
X197119463Y-14444494D01*
X197198815Y-14541185D01*
X197295506Y-14620537D01*
X197405820Y-14679502D01*
X197525518Y-14715812D01*
X197650000Y-14728072D01*
X198914250Y-14725000D01*
X199073000Y-14566250D01*
X199073000Y-13067000D01*
X199327000Y-13067000D01*
X199327000Y-14566250D01*
X199485750Y-14725000D01*
X200750000Y-14728072D01*
X200874482Y-14715812D01*
X200994180Y-14679502D01*
X201104494Y-14620537D01*
X201201185Y-14541185D01*
X201280537Y-14444494D01*
X201339502Y-14334180D01*
X201375812Y-14214482D01*
X201388072Y-14090000D01*
X201385000Y-13225750D01*
X201226250Y-13067000D01*
X199327000Y-13067000D01*
X199073000Y-13067000D01*
X197173750Y-13067000D01*
X197015000Y-13225750D01*
X197011928Y-14090000D01*
X194984801Y-14090000D01*
X197012895Y-12061907D01*
X197015000Y-12654250D01*
X197173750Y-12813000D01*
X199073000Y-12813000D01*
X199073000Y-11313750D01*
X199327000Y-11313750D01*
X199327000Y-12813000D01*
X201226250Y-12813000D01*
X201385000Y-12654250D01*
X201388072Y-11790000D01*
X201375812Y-11665518D01*
X201339502Y-11545820D01*
X201280537Y-11435506D01*
X201201185Y-11338815D01*
X201104494Y-11259463D01*
X200994180Y-11200498D01*
X200874482Y-11164188D01*
X200750000Y-11151928D01*
X199485750Y-11155000D01*
X199327000Y-11313750D01*
X199073000Y-11313750D01*
X198914250Y-11155000D01*
X198688072Y-11154450D01*
X198688072Y-11120000D01*
X198678223Y-11020000D01*
X198688072Y-10920000D01*
X198688072Y-10620000D01*
X198678223Y-10520000D01*
X198688072Y-10420000D01*
X198688072Y-10120000D01*
X198678223Y-10020000D01*
X198688072Y-9920000D01*
X198688072Y-9620000D01*
X198678223Y-9520000D01*
X198688072Y-9420000D01*
X198688072Y-9120000D01*
X198678223Y-9020000D01*
X198688072Y-8920000D01*
X198688072Y-8620000D01*
X198678223Y-8520000D01*
X198688072Y-8420000D01*
X198688072Y-8120000D01*
X198678223Y-8020000D01*
X198688072Y-7920000D01*
X198688072Y-7620000D01*
X198678223Y-7520000D01*
X198688072Y-7420000D01*
X198688072Y-7120000D01*
X198678223Y-7020000D01*
X198688072Y-6920000D01*
X198688072Y-6620000D01*
X198678223Y-6520000D01*
X198688072Y-6420000D01*
X198688072Y-6120000D01*
X198678223Y-6020000D01*
X198688072Y-5920000D01*
X198688072Y-5620000D01*
X198678223Y-5520000D01*
X198688072Y-5420000D01*
X198688072Y-5120000D01*
X198678223Y-5020000D01*
X198688072Y-4920000D01*
X198688072Y-4620000D01*
X198678223Y-4520000D01*
X198688072Y-4420000D01*
X198688072Y-4120000D01*
X198678223Y-4020000D01*
X198688072Y-3920000D01*
X198688072Y-3620000D01*
X198678223Y-3520000D01*
X198688072Y-3420000D01*
X198688072Y-3120000D01*
X198678223Y-3020000D01*
X198688072Y-2920000D01*
X198688072Y-2620000D01*
X198678223Y-2520000D01*
X198688072Y-2420000D01*
X198688072Y-2120000D01*
X198678223Y-2020000D01*
X198688072Y-1920000D01*
X198688072Y-1620000D01*
X198678223Y-1520000D01*
X198688072Y-1420000D01*
X198688072Y-1120000D01*
X198678223Y-1020000D01*
X198688072Y-920000D01*
X198688072Y-620000D01*
X198678223Y-520000D01*
X198688072Y-420000D01*
X198688072Y-120000D01*
X198678223Y-20000D01*
X198688072Y80000D01*
X198688072Y380000D01*
X198678223Y480000D01*
X198688072Y580000D01*
X198688072Y880000D01*
X198678223Y980000D01*
X198688072Y1080000D01*
X198688072Y1380000D01*
X198678223Y1480000D01*
X198688072Y1580000D01*
X198688072Y1880000D01*
X198678223Y1980000D01*
X198688072Y2080000D01*
X198688072Y2380000D01*
X198678223Y2480000D01*
X198688072Y2580000D01*
X198688072Y2880000D01*
X198678223Y2980000D01*
X198688072Y3080000D01*
X198688072Y3380000D01*
X198678223Y3480000D01*
X198688072Y3580000D01*
X198688072Y3880000D01*
X198678223Y3980000D01*
X198688072Y4080000D01*
X198688072Y4380000D01*
X198678223Y4480000D01*
X198688072Y4580000D01*
X198688072Y4880000D01*
X198678223Y4980000D01*
X198688072Y5080000D01*
X198688072Y5380000D01*
X198678223Y5480000D01*
X198688072Y5580000D01*
X198688072Y5880000D01*
X198678223Y5980000D01*
X198688072Y6080000D01*
X198688072Y6114450D01*
X198914250Y6115000D01*
X199073000Y6273750D01*
X199073000Y7773000D01*
X199327000Y7773000D01*
X199327000Y6273750D01*
X199485750Y6115000D01*
X200750000Y6111928D01*
X200874482Y6124188D01*
X200994180Y6160498D01*
X201104494Y6219463D01*
X201201185Y6298815D01*
X201280537Y6395506D01*
X201339502Y6505820D01*
X201375812Y6625518D01*
X201388072Y6750000D01*
X201385000Y7614250D01*
X201226250Y7773000D01*
X199327000Y7773000D01*
X199073000Y7773000D01*
X197173750Y7773000D01*
X197015000Y7614250D01*
X197012881Y7018072D01*
X196950000Y7018072D01*
X196825518Y7005812D01*
X196773393Y6990000D01*
X196184802Y6990000D01*
X194124802Y9050000D01*
X197011928Y9050000D01*
X197015000Y8185750D01*
X197173750Y8027000D01*
X199073000Y8027000D01*
X199073000Y9526250D01*
X199327000Y9526250D01*
X199327000Y8027000D01*
X201226250Y8027000D01*
X201385000Y8185750D01*
X201388072Y9050000D01*
X201375812Y9174482D01*
X201339502Y9294180D01*
X201280537Y9404494D01*
X201201185Y9501185D01*
X201104494Y9580537D01*
X200994180Y9639502D01*
X200874482Y9675812D01*
X200750000Y9688072D01*
X199485750Y9685000D01*
X199327000Y9526250D01*
X199073000Y9526250D01*
X198914250Y9685000D01*
X197650000Y9688072D01*
X197525518Y9675812D01*
X197405820Y9639502D01*
X197295506Y9580537D01*
X197198815Y9501185D01*
X197119463Y9404494D01*
X197060498Y9294180D01*
X197024188Y9174482D01*
X197011928Y9050000D01*
X194124802Y9050000D01*
X184954674Y18220128D01*
X195765000Y18220128D01*
X195765000Y17779872D01*
X195850890Y17348075D01*
X196019369Y16941331D01*
X196263962Y16575271D01*
X196575271Y16263962D01*
X196941331Y16019369D01*
X197348075Y15850890D01*
X197779872Y15765000D01*
X198220128Y15765000D01*
X198651925Y15850890D01*
X199058669Y16019369D01*
X199424729Y16263962D01*
X199736038Y16575271D01*
X199980631Y16941331D01*
X200149110Y17348075D01*
X200235000Y17779872D01*
X200235000Y18220128D01*
X200149110Y18651925D01*
X199980631Y19058669D01*
X199736038Y19424729D01*
X199424729Y19736038D01*
X199058669Y19980631D01*
X198651925Y20149110D01*
X198220128Y20235000D01*
X197779872Y20235000D01*
X197348075Y20149110D01*
X196941331Y19980631D01*
X196575271Y19736038D01*
X196263962Y19424729D01*
X196019369Y19058669D01*
X195850890Y18651925D01*
X195765000Y18220128D01*
X184954674Y18220128D01*
X183663804Y19510997D01*
X183640001Y19540001D01*
X183524276Y19634974D01*
X183392247Y19705546D01*
X183248986Y19749003D01*
X183238072Y19750078D01*
X183238072Y19850000D01*
X183225812Y19974482D01*
X183189502Y20094180D01*
X183130537Y20204494D01*
X183051185Y20301185D01*
X182954494Y20380537D01*
X182844180Y20439502D01*
X182724482Y20475812D01*
X182600000Y20488072D01*
X180900000Y20488072D01*
X180775518Y20475812D01*
X180655820Y20439502D01*
X180545506Y20380537D01*
X180448815Y20301185D01*
X180369463Y20204494D01*
X180310498Y20094180D01*
X180288487Y20021620D01*
X180156632Y20153475D01*
X179913411Y20315990D01*
X179643158Y20427932D01*
X179356260Y20485000D01*
X179063740Y20485000D01*
X178776842Y20427932D01*
X178506589Y20315990D01*
X178263368Y20153475D01*
X178056525Y19946632D01*
X177894010Y19703411D01*
X177782068Y19433158D01*
X177725000Y19146260D01*
X177131905Y19146260D01*
X177127000Y21500265D01*
X177124560Y21524776D01*
X177117333Y21548601D01*
X177105597Y21570557D01*
X177089803Y21589803D01*
X177070557Y21605597D01*
X177048601Y21617333D01*
X177024776Y21624560D01*
X177000000Y21627000D01*
X175250000Y21627000D01*
X175225224Y21624560D01*
X175201399Y21617333D01*
X175179443Y21605597D01*
X175160197Y21589803D01*
X175144403Y21570557D01*
X175132667Y21548601D01*
X175125440Y21524776D01*
X175123000Y21500000D01*
X152335149Y21500000D01*
X152991248Y21727836D01*
X153735790Y21835790D01*
X153908063Y21840000D01*
X197968591Y21840000D01*
X198725555Y21767779D01*
G37*
%TD.AperFunction*%
%TD*%
M02*
