%TF.GenerationSoftware,KiCad,Pcbnew,5.1.10-88a1d61d58~88~ubuntu20.04.1*%
%TF.CreationDate,2021-05-25T15:32:40+07:00*%
%TF.ProjectId,36P-miniSAS-Header-Adapter,3336502d-6d69-46e6-9953-41532d486561,rev?*%
%TF.SameCoordinates,Original*%
%TF.FileFunction,Soldermask,Top*%
%TF.FilePolarity,Negative*%
%FSLAX46Y46*%
G04 Gerber Fmt 4.6, Leading zero omitted, Abs format (unit mm)*
G04 Created by KiCad (PCBNEW 5.1.10-88a1d61d58~88~ubuntu20.04.1) date 2021-05-25 15:32:40*
%MOMM*%
%LPD*%
G01*
G04 APERTURE LIST*
%ADD10R,1.100000X0.300000*%
%ADD11R,3.100000X2.300000*%
%ADD12C,3.200000*%
%ADD13O,1.700000X1.700000*%
%ADD14R,1.700000X1.700000*%
%ADD15C,1.550000*%
%ADD16R,1.800000X0.350000*%
%ADD17C,1.308000*%
G04 APERTURE END LIST*
D10*
%TO.C,J3*%
X197500000Y6250000D03*
X197500000Y5750000D03*
X197500000Y5250000D03*
X197500000Y4750000D03*
X197500000Y4250000D03*
X197500000Y3750000D03*
X197500000Y3250000D03*
X197500000Y2750000D03*
X197500000Y2250000D03*
X197500000Y1750000D03*
X197500000Y1250000D03*
X197500000Y750000D03*
X197500000Y250000D03*
X197500000Y-250000D03*
X197500000Y-750000D03*
X197500000Y-1250000D03*
X197500000Y-1750000D03*
X197500000Y-2250000D03*
X197500000Y-2750000D03*
X197500000Y-3250000D03*
X197500000Y-3750000D03*
X197500000Y-4250000D03*
X197500000Y-4750000D03*
X197500000Y-5250000D03*
X197500000Y-5750000D03*
X197500000Y-6250000D03*
X197500000Y-6750000D03*
X197500000Y-7250000D03*
X197500000Y-7750000D03*
X197500000Y-8250000D03*
D11*
X199200000Y-12920000D03*
X199200000Y7920000D03*
D10*
X197500000Y-8750000D03*
X197500000Y-9250000D03*
X197500000Y-9750000D03*
X197500000Y-10250000D03*
X197500000Y-10750000D03*
X197500000Y-11250000D03*
%TD*%
D12*
%TO.C,H4*%
X198000000Y18000000D03*
%TD*%
%TO.C,H3*%
X197800000Y-22400000D03*
%TD*%
D13*
%TO.C,J4*%
X179210000Y-24180000D03*
X181750000Y-24180000D03*
X179210000Y-21640000D03*
X181750000Y-21640000D03*
X179210000Y-19100000D03*
X181750000Y-19100000D03*
X179210000Y-16560000D03*
X181750000Y-16560000D03*
X179210000Y-14020000D03*
X181750000Y-14020000D03*
X179210000Y-11480000D03*
X181750000Y-11480000D03*
X179210000Y-8940000D03*
X181750000Y-8940000D03*
X179210000Y-6400000D03*
X181750000Y-6400000D03*
X179210000Y-3860000D03*
X181750000Y-3860000D03*
X179210000Y-1320000D03*
X181750000Y-1320000D03*
X179210000Y1220000D03*
X181750000Y1220000D03*
X179210000Y3760000D03*
X181750000Y3760000D03*
X179210000Y6300000D03*
X181750000Y6300000D03*
X179210000Y8840000D03*
X181750000Y8840000D03*
X179210000Y11380000D03*
X181750000Y11380000D03*
X179210000Y13920000D03*
X181750000Y13920000D03*
X179210000Y16460000D03*
X181750000Y16460000D03*
X179210000Y19000000D03*
D14*
X181750000Y19000000D03*
%TD*%
D12*
%TO.C,H2*%
X154100000Y-22500000D03*
%TD*%
%TO.C,H1*%
X154200000Y18100000D03*
%TD*%
D13*
%TO.C,J2*%
X170460000Y-24180000D03*
X173000000Y-24180000D03*
X170460000Y-21640000D03*
X173000000Y-21640000D03*
X170460000Y-19100000D03*
X173000000Y-19100000D03*
X170460000Y-16560000D03*
X173000000Y-16560000D03*
X170460000Y-14020000D03*
X173000000Y-14020000D03*
X170460000Y-11480000D03*
X173000000Y-11480000D03*
X170460000Y-8940000D03*
X173000000Y-8940000D03*
X170460000Y-6400000D03*
X173000000Y-6400000D03*
X170460000Y-3860000D03*
X173000000Y-3860000D03*
X170460000Y-1320000D03*
X173000000Y-1320000D03*
X170460000Y1220000D03*
X173000000Y1220000D03*
X170460000Y3760000D03*
X173000000Y3760000D03*
X170460000Y6300000D03*
X173000000Y6300000D03*
X170460000Y8840000D03*
X173000000Y8840000D03*
X170460000Y11380000D03*
X173000000Y11380000D03*
X170460000Y13920000D03*
X173000000Y13920000D03*
X170460000Y16460000D03*
X173000000Y16460000D03*
X170460000Y19000000D03*
D14*
X173000000Y19000000D03*
%TD*%
D15*
%TO.C,J1*%
X155590000Y5250000D03*
X155590000Y-10750000D03*
D16*
X158500000Y4250000D03*
X158500000Y3450000D03*
X158500000Y2650000D03*
X158500000Y1850000D03*
X158500000Y1050000D03*
X158500000Y250000D03*
X158500000Y-550000D03*
X158500000Y-1350000D03*
X158500000Y-2150000D03*
X158500000Y-2950000D03*
X158500000Y-3750000D03*
X158500000Y-4550000D03*
X158500000Y-5350000D03*
X158500000Y-6150000D03*
X158500000Y-6950000D03*
X158500000Y-7750000D03*
X158500000Y-8550000D03*
X158500000Y-9350000D03*
X152680000Y3850000D03*
X152680000Y3050000D03*
X152680000Y2250000D03*
X152680000Y1450000D03*
X152680000Y650000D03*
X152680000Y-150000D03*
X152680000Y-950000D03*
X152680000Y-1750000D03*
X152680000Y-2550000D03*
X152680000Y-3350000D03*
X152680000Y-4150000D03*
X152680000Y-4950000D03*
X152680000Y-5750000D03*
X152680000Y-6550000D03*
X152680000Y-7350000D03*
X152680000Y-8150000D03*
X152680000Y-8950000D03*
X152680000Y-9750000D03*
D17*
X160830000Y6150000D03*
X157590000Y6150000D03*
X153590000Y6150000D03*
X151560000Y6150000D03*
X161830000Y-11650000D03*
X157590000Y-11650000D03*
X153590000Y-11650000D03*
X151560000Y-11650000D03*
%TD*%
M02*
