%TF.GenerationSoftware,KiCad,Pcbnew,5.1.10-88a1d61d58~88~ubuntu20.04.1*%
%TF.CreationDate,2021-05-25T15:32:40+07:00*%
%TF.ProjectId,36P-miniSAS-Header-Adapter,3336502d-6d69-46e6-9953-41532d486561,rev?*%
%TF.SameCoordinates,Original*%
%TF.FileFunction,Soldermask,Bot*%
%TF.FilePolarity,Negative*%
%FSLAX46Y46*%
G04 Gerber Fmt 4.6, Leading zero omitted, Abs format (unit mm)*
G04 Created by KiCad (PCBNEW 5.1.10-88a1d61d58~88~ubuntu20.04.1) date 2021-05-25 15:32:40*
%MOMM*%
%LPD*%
G01*
G04 APERTURE LIST*
%ADD10R,1.100000X0.300000*%
%ADD11R,3.100000X2.300000*%
%ADD12C,3.200000*%
%ADD13O,1.700000X1.700000*%
%ADD14R,1.700000X1.700000*%
%ADD15C,1.550000*%
%ADD16C,1.308000*%
G04 APERTURE END LIST*
D10*
%TO.C,J5*%
X197500000Y-11270000D03*
X197500000Y-10770000D03*
X197500000Y-10270000D03*
X197500000Y-9770000D03*
X197500000Y-9270000D03*
X197500000Y-8770000D03*
X197500000Y-8270000D03*
X197500000Y-7770000D03*
X197500000Y-7270000D03*
X197500000Y-6770000D03*
X197500000Y-6270000D03*
X197500000Y-5770000D03*
X197500000Y-5270000D03*
X197500000Y-4770000D03*
X197500000Y-4270000D03*
X197500000Y-3770000D03*
X197500000Y-3270000D03*
X197500000Y-2770000D03*
X197500000Y-2270000D03*
X197500000Y-1770000D03*
X197500000Y-1270000D03*
X197500000Y-770000D03*
X197500000Y-270000D03*
X197500000Y230000D03*
X197500000Y730000D03*
X197500000Y1230000D03*
X197500000Y1730000D03*
X197500000Y2230000D03*
X197500000Y2730000D03*
X197500000Y3230000D03*
D11*
X199200000Y7900000D03*
X199200000Y-12940000D03*
D10*
X197500000Y3730000D03*
X197500000Y4230000D03*
X197500000Y4730000D03*
X197500000Y5230000D03*
X197500000Y5730000D03*
X197500000Y6230000D03*
%TD*%
D12*
%TO.C,H4*%
X198000000Y18000000D03*
%TD*%
%TO.C,H3*%
X197800000Y-22400000D03*
%TD*%
D13*
%TO.C,J4*%
X179210000Y-24180000D03*
X181750000Y-24180000D03*
X179210000Y-21640000D03*
X181750000Y-21640000D03*
X179210000Y-19100000D03*
X181750000Y-19100000D03*
X179210000Y-16560000D03*
X181750000Y-16560000D03*
X179210000Y-14020000D03*
X181750000Y-14020000D03*
X179210000Y-11480000D03*
X181750000Y-11480000D03*
X179210000Y-8940000D03*
X181750000Y-8940000D03*
X179210000Y-6400000D03*
X181750000Y-6400000D03*
X179210000Y-3860000D03*
X181750000Y-3860000D03*
X179210000Y-1320000D03*
X181750000Y-1320000D03*
X179210000Y1220000D03*
X181750000Y1220000D03*
X179210000Y3760000D03*
X181750000Y3760000D03*
X179210000Y6300000D03*
X181750000Y6300000D03*
X179210000Y8840000D03*
X181750000Y8840000D03*
X179210000Y11380000D03*
X181750000Y11380000D03*
X179210000Y13920000D03*
X181750000Y13920000D03*
X179210000Y16460000D03*
X181750000Y16460000D03*
X179210000Y19000000D03*
D14*
X181750000Y19000000D03*
%TD*%
D12*
%TO.C,H2*%
X154100000Y-22500000D03*
%TD*%
%TO.C,H1*%
X154200000Y18100000D03*
%TD*%
D13*
%TO.C,J2*%
X170460000Y-24180000D03*
X173000000Y-24180000D03*
X170460000Y-21640000D03*
X173000000Y-21640000D03*
X170460000Y-19100000D03*
X173000000Y-19100000D03*
X170460000Y-16560000D03*
X173000000Y-16560000D03*
X170460000Y-14020000D03*
X173000000Y-14020000D03*
X170460000Y-11480000D03*
X173000000Y-11480000D03*
X170460000Y-8940000D03*
X173000000Y-8940000D03*
X170460000Y-6400000D03*
X173000000Y-6400000D03*
X170460000Y-3860000D03*
X173000000Y-3860000D03*
X170460000Y-1320000D03*
X173000000Y-1320000D03*
X170460000Y1220000D03*
X173000000Y1220000D03*
X170460000Y3760000D03*
X173000000Y3760000D03*
X170460000Y6300000D03*
X173000000Y6300000D03*
X170460000Y8840000D03*
X173000000Y8840000D03*
X170460000Y11380000D03*
X173000000Y11380000D03*
X170460000Y13920000D03*
X173000000Y13920000D03*
X170460000Y16460000D03*
X173000000Y16460000D03*
X170460000Y19000000D03*
D14*
X173000000Y19000000D03*
%TD*%
D15*
%TO.C,J1*%
X155590000Y5250000D03*
X155590000Y-10750000D03*
D16*
X160830000Y6150000D03*
X157590000Y6150000D03*
X153590000Y6150000D03*
X151560000Y6150000D03*
X161830000Y-11650000D03*
X157590000Y-11650000D03*
X153590000Y-11650000D03*
X151560000Y-11650000D03*
%TD*%
M02*
