M48
; DRILL file {KiCad 5.1.10-88a1d61d58~88~ubuntu20.04.1} date Tue May 25 15:33:11 2021
; FORMAT={-:-/ absolute / inch / decimal}
; #@! TF.CreationDate,2021-05-25T15:33:11+07:00
; #@! TF.GenerationSoftware,Kicad,Pcbnew,5.1.10-88a1d61d58~88~ubuntu20.04.1
FMAT,2
INCH
T1C0.0157
T2C0.0315
T3C0.0394
T4C0.0610
T5C0.1260
%
G90
G05
T1
X6.0118Y0.1909
X6.0807Y-0.2264
X6.0827Y0.0886
X6.0827Y0.0256
X6.0827Y-0.0374
X6.0827Y-0.1004
X6.0827Y-0.1634
X6.0827Y-0.2894
X6.0846Y-0.3524
X6.1201Y-0.1949
X6.122Y0.0571
X6.122Y-0.0059
X6.122Y-0.0689
X6.122Y-0.1319
X6.122Y-0.2579
X6.122Y-0.3209
X6.124Y0.1201
X6.2795Y-0.4055
T2
X5.9669Y0.2421
X5.9669Y-0.4587
X6.0469Y0.2421
X6.0469Y-0.4587
X6.2043Y0.2421
X6.2043Y-0.4587
X6.3319Y0.2421
X6.3713Y-0.4587
T3
X6.711Y0.748
X6.711Y0.648
X6.711Y0.548
X6.711Y0.448
X6.711Y0.348
X6.711Y0.248
X6.711Y0.148
X6.711Y0.048
X6.711Y-0.052
X6.711Y-0.152
X6.711Y-0.252
X6.711Y-0.352
X6.711Y-0.452
X6.711Y-0.552
X6.711Y-0.652
X6.711Y-0.752
X6.711Y-0.852
X6.711Y-0.952
X6.811Y0.748
X6.811Y0.648
X6.811Y0.548
X6.811Y0.448
X6.811Y0.348
X6.811Y0.248
X6.811Y0.148
X6.811Y0.048
X6.811Y-0.052
X6.811Y-0.152
X6.811Y-0.252
X6.811Y-0.352
X6.811Y-0.452
X6.811Y-0.552
X6.811Y-0.652
X6.811Y-0.752
X6.811Y-0.852
X6.811Y-0.952
X7.0555Y0.748
X7.0555Y0.648
X7.0555Y0.548
X7.0555Y0.448
X7.0555Y0.348
X7.0555Y0.248
X7.0555Y0.148
X7.0555Y0.048
X7.0555Y-0.052
X7.0555Y-0.152
X7.0555Y-0.252
X7.0555Y-0.352
X7.0555Y-0.452
X7.0555Y-0.552
X7.0555Y-0.652
X7.0555Y-0.752
X7.0555Y-0.852
X7.0555Y-0.952
X7.1555Y0.748
X7.1555Y0.648
X7.1555Y0.548
X7.1555Y0.448
X7.1555Y0.348
X7.1555Y0.248
X7.1555Y0.148
X7.1555Y0.048
X7.1555Y-0.052
X7.1555Y-0.152
X7.1555Y-0.252
X7.1555Y-0.352
X7.1555Y-0.452
X7.1555Y-0.552
X7.1555Y-0.652
X7.1555Y-0.752
X7.1555Y-0.852
X7.1555Y-0.952
T4
X6.1256Y0.2067
X6.1256Y-0.4232
T5
X6.0669Y-0.8858
X6.0709Y0.7126
X7.7874Y-0.8819
X7.7953Y0.7087
T0
M30
