%TF.GenerationSoftware,KiCad,Pcbnew,5.1.10-88a1d61d58~88~ubuntu20.04.1*%
%TF.CreationDate,2021-05-25T15:32:40+07:00*%
%TF.ProjectId,36P-miniSAS-Header-Adapter,3336502d-6d69-46e6-9953-41532d486561,rev?*%
%TF.SameCoordinates,Original*%
%TF.FileFunction,Legend,Top*%
%TF.FilePolarity,Positive*%
%FSLAX46Y46*%
G04 Gerber Fmt 4.6, Leading zero omitted, Abs format (unit mm)*
G04 Created by KiCad (PCBNEW 5.1.10-88a1d61d58~88~ubuntu20.04.1) date 2021-05-25 15:32:40*
%MOMM*%
%LPD*%
G01*
G04 APERTURE LIST*
%ADD10C,0.127000*%
%ADD11C,0.200000*%
%ADD12C,0.015000*%
%ADD13C,0.150000*%
G04 APERTURE END LIST*
D10*
%TO.C,J3*%
X202050000Y-14215000D02*
X201100000Y-14215000D01*
X202050000Y9215000D02*
X201100000Y9215000D01*
X202050000Y-14215000D02*
X202050000Y9215000D01*
D11*
X196400000Y-11400000D02*
G75*
G03*
X196400000Y-11400000I-100000J0D01*
G01*
D10*
%TO.C,J1*%
X150290000Y7150000D02*
X163090000Y7150000D01*
X163090000Y7150000D02*
X163090000Y-12650000D01*
X163090000Y-12650000D02*
X150290000Y-12650000D01*
X150290000Y-12650000D02*
X150290000Y7150000D01*
D11*
X151090000Y3850000D02*
G75*
G03*
X151090000Y3850000I-100000J0D01*
G01*
X160290000Y4250000D02*
G75*
G03*
X160290000Y4250000I-100000J0D01*
G01*
%TO.C,J3*%
D12*
X195343123Y-12381333D02*
X195800266Y-12381333D01*
X195891695Y-12411809D01*
X195952647Y-12472761D01*
X195983123Y-12564190D01*
X195983123Y-12625142D01*
X195343123Y-12137523D02*
X195343123Y-11741333D01*
X195586933Y-11954666D01*
X195586933Y-11863238D01*
X195617409Y-11802285D01*
X195647885Y-11771809D01*
X195708838Y-11741333D01*
X195861219Y-11741333D01*
X195922171Y-11771809D01*
X195952647Y-11802285D01*
X195983123Y-11863238D01*
X195983123Y-12046095D01*
X195952647Y-12107047D01*
X195922171Y-12137523D01*
%TO.C,H4*%
D13*
X194702380Y17238095D02*
X193702380Y17238095D01*
X194178571Y17238095D02*
X194178571Y17809523D01*
X194702380Y17809523D02*
X193702380Y17809523D01*
X194035714Y18714285D02*
X194702380Y18714285D01*
X193654761Y18476190D02*
X194369047Y18238095D01*
X194369047Y18857142D01*
%TO.C,H3*%
X194502380Y-23661904D02*
X193502380Y-23661904D01*
X193978571Y-23661904D02*
X193978571Y-23090476D01*
X194502380Y-23090476D02*
X193502380Y-23090476D01*
X193502380Y-22709523D02*
X193502380Y-22090476D01*
X193883333Y-22423809D01*
X193883333Y-22280952D01*
X193930952Y-22185714D01*
X193978571Y-22138095D01*
X194073809Y-22090476D01*
X194311904Y-22090476D01*
X194407142Y-22138095D01*
X194454761Y-22185714D01*
X194502380Y-22280952D01*
X194502380Y-22566666D01*
X194454761Y-22661904D01*
X194407142Y-22709523D01*
%TO.C,H2*%
X158302380Y-23261904D02*
X157302380Y-23261904D01*
X157778571Y-23261904D02*
X157778571Y-22690476D01*
X158302380Y-22690476D02*
X157302380Y-22690476D01*
X157397619Y-22261904D02*
X157350000Y-22214285D01*
X157302380Y-22119047D01*
X157302380Y-21880952D01*
X157350000Y-21785714D01*
X157397619Y-21738095D01*
X157492857Y-21690476D01*
X157588095Y-21690476D01*
X157730952Y-21738095D01*
X158302380Y-22309523D01*
X158302380Y-21690476D01*
%TO.C,H1*%
X158152380Y17338095D02*
X157152380Y17338095D01*
X157628571Y17338095D02*
X157628571Y17909523D01*
X158152380Y17909523D02*
X157152380Y17909523D01*
X158152380Y18909523D02*
X158152380Y18338095D01*
X158152380Y18623809D02*
X157152380Y18623809D01*
X157295238Y18528571D01*
X157390476Y18433333D01*
X157438095Y18338095D01*
%TO.C,J1*%
D12*
X160202380Y9166666D02*
X160916666Y9166666D01*
X161059523Y9119047D01*
X161154761Y9023809D01*
X161202380Y8880952D01*
X161202380Y8785714D01*
X161202380Y10166666D02*
X161202380Y9595238D01*
X161202380Y9880952D02*
X160202380Y9880952D01*
X160345238Y9785714D01*
X160440476Y9690476D01*
X160488095Y9595238D01*
%TD*%
M02*
